# decimated from Yaskawa CAD (ROS-Industrial motoman, BSD-3-Clause)
v 0.067508 -0.025267 0.002140
v 0.067501 -0.016394 0.018766
v 0.067562 -0.013246 -0.021376
v 0.067500 -0.005739 0.023922
v 0.067500 0.000000 0.000000
v 0.067453 0.003743 -0.024992
v 0.067520 0.003037 0.024898
v 0.067786 0.012123 -0.021772
v 0.067566 0.019345 -0.016089
v 0.067621 0.023346 0.008464
v 0.067566 0.024923 -0.004534
v 0.068652 0.011541 -0.009287
v 0.068307 0.011734 0.010032
v 0.068376 -0.023032 0.010022
v 0.068286 -0.025377 -0.003296
v 0.067601 0.019938 0.015254
v 0.067838 0.012657 0.021550
v 0.068372 0.007023 -0.024011
v 0.067703 -0.020480 -0.014127
v 0.067652 0.024336 0.004585
v 0.068391 -0.008755 0.023784
v 0.068396 -0.018135 0.017386
v 0.067744 -0.008850 -0.023476
v 0.069400 0.012161 -0.013125
v 0.068618 -0.009631 -0.012391
v 0.068865 0.009130 0.011893
v 0.069472 0.013423 0.011545
v 0.069498 -0.012603 -0.012668
v 0.068606 -0.012282 0.009632
v 0.069465 -0.011142 -0.008888
v 0.069465 0.009140 -0.012123
v 0.069473 -0.013345 -0.010816
v 0.068952 -0.010109 0.013083
v 0.073000 -0.003999 -0.005108
v 0.072995 -0.005635 0.002949
v 0.072986 0.006668 -0.002421
v 0.073000 0.000630 0.006187
v 0.073996 -0.002329 -0.017311
v 0.074022 0.002010 -0.014550
v 0.077498 -0.025475 -0.001104
v 0.077493 -0.020398 0.015463
v 0.077501 -0.018235 -0.017996
v 0.077499 -0.009520 0.023246
v 0.077499 0.000108 0.025205
v 0.077501 0.010455 0.022861
v 0.077500 0.023935 -0.008152
v 0.077502 0.023748 0.010413
v 0.077494 -0.026337 -0.014175
v 0.077812 -0.017564 -0.025007
v 0.077499 -0.003605 -0.025054
v 0.077555 0.006906 -0.029243
v 0.078003 0.016086 0.026591
v 0.077498 0.013578 -0.021872
v 0.077490 0.027394 0.012811
v 0.077505 0.029264 -0.006426
v 0.079401 -0.029888 -0.005381
v 0.077753 0.022162 -0.021103
v 0.077999 0.029436 0.006045
v 0.077614 -0.017521 0.024806
v 0.078065 0.026296 0.015011
v 0.077955 -0.001567 0.030311
v 0.077699 -0.028582 0.010314
v 0.079490 0.017485 -0.024510
v 0.079344 -0.005081 -0.029849
v 0.078631 0.029814 -0.006985
v 0.079968 0.016508 0.026205
v 0.079929 -0.022938 -0.021678
v 0.079843 -0.028301 0.011170
v 0.080000 -0.013237 -0.013243
v 0.080000 -0.013237 0.007519
v 0.080000 -0.013237 0.011137
v 0.080000 -0.013237 0.013237
v 0.080000 -0.012559 0.012885
v 0.079838 -0.015195 0.026343
v 0.080000 -0.013028 -0.012425
v 0.080000 -0.009594 0.012736
v 0.079999 -0.010732 0.008657
v 0.080001 -0.009328 -0.012771
v 0.080001 -0.011451 -0.008679
v 0.080000 -0.006683 0.007246
v 0.080001 -0.006399 0.000029
v 0.080003 -0.001872 -0.013771
v 0.080001 0.001189 -0.006905
v 0.079808 0.005303 -0.030768
v 0.080006 0.000051 -0.018655
v 0.080011 0.001851 0.006839
v 0.080000 0.002397 -0.014791
v 0.080000 0.006036 -0.000340
v 0.080000 0.009812 -0.009022
v 0.080000 0.007049 0.007521
v 0.080000 0.009027 0.010708
v 0.080004 0.003091 0.030212
v 0.079999 0.009859 0.013058
v 0.080000 0.013238 0.010215
v 0.080002 0.012019 -0.013116
v 0.079974 0.026179 -0.015075
v 0.079880 0.029368 0.007394
vn 1.0000 0.0015 -0.0006
vn 0.8845 -0.1861 -0.4279
vn 0.7495 0.3486 0.5627
vn 0.8845 -0.1861 -0.4279
vn 1.0000 -0.0011 0.0004
vn 0.7495 0.3486 0.5627
vn 0.1923 -0.8032 -0.5637
vn 0.1923 -0.8032 -0.5637
vn 0.5240 -0.1926 -0.8297
vn 0.0714 -0.8617 -0.5024
vn 0.0714 -0.8617 -0.5024
vn 0.0714 -0.8617 -0.5024
vn -0.2413 -0.7808 0.5764
vn -0.2413 -0.7808 0.5764
vn -0.2413 -0.7808 0.5764
vn 0.3948 -0.2240 0.8911
vn 0.7495 0.3486 0.5627
vn 0.9039 -0.0428 0.4257
vn -0.2964 0.6443 0.7050
vn -0.2964 0.6443 0.7050
vn -0.2964 0.6443 0.7050
vn 0.1865 0.9628 0.1957
vn 0.2944 0.7787 -0.5540
vn 0.7462 0.6651 0.0296
vn -0.2443 0.6175 -0.7477
vn -0.2443 0.6175 -0.7477
vn 0.2944 0.7787 -0.5540
vn 0.2944 0.7787 -0.5540
vn 0.0026 0.4592 -0.8883
vn 0.5240 -0.1926 -0.8297
vn 0.9992 0.0319 -0.0254
vn 0.9972 -0.0654 0.0374
vn 0.9938 0.0976 -0.0541
vn 0.9972 -0.0654 0.0374
vn 0.9815 0.0273 -0.1897
vn 0.9938 0.0976 -0.0541
vn -0.0242 -0.2323 -0.9723
vn -0.0242 -0.2323 -0.9723
vn -0.0242 -0.2323 -0.9723
vn 0.9949 -0.0219 0.0984
vn 0.9815 0.0273 -0.1897
vn 0.9960 -0.0798 -0.0392
vn 0.9949 -0.0219 0.0984
vn 0.9888 -0.1061 -0.1052
vn 0.9815 0.0273 -0.1897
vn 0.9887 0.1041 -0.1082
vn 0.9888 -0.1061 -0.1052
vn 0.9949 -0.0219 0.0984
vn 0.9887 0.1041 -0.1082
vn 1.0000 -0.0010 -0.0064
vn 0.9888 -0.1061 -0.1052
vn 1.0000 -0.0010 -0.0064
vn 0.9623 0.1612 0.2191
vn 0.9888 -0.1061 -0.1052
vn 0.9997 -0.0118 -0.0231
vn 0.9777 -0.1891 0.0913
vn 0.9862 -0.1645 -0.0199
vn 0.9777 -0.1891 0.0913
vn 0.9997 -0.0118 -0.0231
vn 0.9999 -0.0095 0.0081
vn 0.9999 -0.0095 0.0081
vn 0.9762 -0.1056 0.1896
vn 0.9777 -0.1891 0.0913
vn 0.9999 -0.0095 0.0081
vn 0.9935 -0.1074 -0.0381
vn 0.9762 -0.1056 0.1896
vn 0.9935 -0.1074 -0.0381
vn 0.9978 -0.0020 0.0665
vn 0.9762 -0.1056 0.1896
vn 0.9927 0.1136 0.0401
vn 0.9805 0.1044 0.1665
vn 0.9980 -0.0546 0.0310
vn 0.9882 -0.0157 -0.1526
vn 0.9805 0.1044 0.1665
vn 0.9978 -0.0020 0.0665
vn 0.9805 0.1044 0.1665
vn 0.9882 -0.0157 -0.1526
vn 0.9980 -0.0546 0.0310
vn 1.0000 0.0027 -0.0004
vn 0.9927 0.1136 0.0401
vn 0.9980 -0.0546 0.0310
vn 1.0000 0.0027 -0.0004
vn 0.9980 -0.0546 0.0310
vn 0.9076 0.2705 0.3210
vn 0.9076 0.2705 0.3210
vn 0.9882 -0.0157 -0.1526
vn 0.9978 -0.0020 0.0665
vn 1.0000 -0.0010 -0.0064
vn 0.9887 0.1041 -0.1082
vn 0.6600 -0.6924 0.2914
vn 0.6600 -0.6924 0.2914
vn 0.9623 0.1612 0.2191
vn 1.0000 -0.0010 -0.0064
vn 0.9998 -0.0004 0.0185
vn 1.0000 0.0027 -0.0004
vn 0.9999 -0.0102 -0.0010
vn 0.7462 0.6651 0.0296
vn 1.0000 -0.0012 0.0001
vn 0.9999 -0.0102 -0.0010
vn 0.9913 -0.0557 -0.1192
vn 0.9039 -0.0428 0.4257
vn 0.7462 0.6651 0.0296
vn 1.0000 0.0027 -0.0004
vn 1.0000 0.0021 -0.0003
vn 0.8147 -0.5792 0.0279
vn 0.9992 0.0319 -0.0254
vn 0.8147 -0.5792 0.0279
vn 0.9039 -0.0428 0.4257
vn 0.9992 0.0319 -0.0254
vn 0.9938 0.0976 -0.0541
vn 0.9927 0.1136 0.0401
vn 1.0000 0.0027 -0.0004
vn 0.9992 0.0319 -0.0254
vn 0.9927 0.1136 0.0401
vn 0.8147 -0.5792 0.0279
vn 0.9992 0.0319 -0.0254
vn 1.0000 0.0027 -0.0004
vn 0.9887 0.1041 -0.1082
vn 0.9913 -0.0557 -0.1192
vn 0.6600 -0.6924 0.2914
vn 0.9039 -0.0428 0.4257
vn 0.9913 -0.0557 -0.1192
vn 0.9887 0.1041 -0.1082
vn 0.9887 0.1041 -0.1082
vn 0.9960 -0.0798 -0.0392
vn 0.9039 -0.0428 0.4257
vn 0.9992 0.0319 -0.0254
vn 0.9039 -0.0428 0.4257
vn 0.9960 -0.0798 -0.0392
vn 0.9992 0.0319 -0.0254
vn 0.9960 -0.0798 -0.0392
vn 0.9972 -0.0654 0.0374
vn 0.9815 0.0273 -0.1897
vn 0.9972 -0.0654 0.0374
vn 0.9960 -0.0798 -0.0392
vn 0.9862 -0.1645 -0.0199
vn 0.9623 0.1612 0.2191
vn 0.9913 -0.0557 -0.1192
vn 0.9888 -0.1061 -0.1052
vn 0.9623 0.1612 0.2191
vn 0.9862 -0.1645 -0.0199
vn 0.9978 -0.0020 0.0665
vn 1.0000 0.0027 -0.0004
vn 0.9076 0.2705 0.3210
vn 0.9999 -0.0102 -0.0010
vn 1.0000 0.0027 -0.0004
vn 0.9978 -0.0020 0.0665
vn 0.9978 -0.0020 0.0665
vn 0.9935 -0.1074 -0.0381
vn 0.9999 -0.0102 -0.0010
vn 0.9999 -0.0102 -0.0010
vn 0.9913 -0.0557 -0.1192
vn 0.7462 0.6651 0.0296
vn 0.9862 -0.1645 -0.0199
vn 0.9913 -0.0557 -0.1192
vn 0.9999 -0.0102 -0.0010
vn 0.9999 -0.0102 -0.0010
vn 0.9997 -0.0118 -0.0231
vn 0.9862 -0.1645 -0.0199
vn 0.9997 -0.0118 -0.0231
vn 0.9999 -0.0102 -0.0010
vn 1.0000 0.0000 0.0007
vn 0.9935 -0.1074 -0.0381
vn 0.9999 -0.0095 0.0081
vn 1.0000 -0.0002 -0.0017
vn 0.9999 -0.0102 -0.0010
vn 0.9935 -0.1074 -0.0381
vn 1.0000 -0.0002 -0.0001
vn 1.0000 0.0003 0.0000
vn 1.0000 0.0003 0.0000
vn 0.9997 -0.0118 -0.0231
vn 0.0000 0.0000 0.0000
vn 0.0000 0.0000 0.0000
vn 0.0000 0.0000 0.0000
vn 1.0000 0.0007 -0.0000
vn 1.0000 0.0007 -0.0000
vn 0.9999 -0.0095 0.0081
vn -0.1221 -0.8736 -0.4711
vn -0.1221 -0.8736 -0.4711
vn 0.1221 -0.6920 -0.7115
vn 0.1325 0.7750 -0.6180
vn 0.1325 0.7750 -0.6180
vn 0.1325 0.7750 -0.6180
vn -0.1922 0.8638 0.4657
vn -0.1922 0.8638 0.4657
vn 0.0756 0.9370 0.3411
vn 0.0033 0.3150 0.9491
vn 0.0033 0.3150 0.9491
vn 0.0033 0.3150 0.9491
vn 0.1221 -0.6920 -0.7115
vn -0.0130 -0.9867 -0.1620
vn -0.0130 -0.9867 -0.1620
vn 0.9749 0.0890 0.2043
vn 0.9749 0.0890 0.2043
vn 0.9749 0.0890 0.2043
vn 0.0083 -0.8876 -0.4605
vn 0.0083 -0.8876 -0.4605
vn 0.0083 -0.8876 -0.4605
vn 0.2445 -0.3305 -0.9116
vn 0.1893 -0.9104 0.3679
vn -0.0192 -0.9198 -0.3920
vn 0.1586 0.9162 -0.3680
vn 0.0342 0.6581 -0.7521
vn 0.0342 0.6581 -0.7521
vn -0.0868 0.9182 -0.3865
vn -0.0868 0.9182 -0.3865
vn 0.1586 0.9162 -0.3680
vn 0.1255 0.4119 0.9025
vn 0.1586 0.9162 -0.3680
vn 0.0289 0.9278 0.3719
vn -0.0271 -0.1006 0.9946
vn 0.1255 0.4119 0.9025
vn -0.0271 -0.1006 0.9946
vn 0.0307 0.0931 0.9952
vn 0.0307 0.0931 0.9952
vn 0.0307 0.0931 0.9952
vn 0.9736 0.1522 -0.1699
vn 0.9736 0.1522 -0.1699
vn 0.9736 0.1522 -0.1699
vn 0.9548 0.2715 0.1214
vn 0.9548 0.2715 0.1214
vn 0.9548 0.2715 0.1214
vn 0.2189 0.8957 0.3871
vn -0.0349 0.7031 0.7102
vn 0.3132 0.8718 0.3768
vn 0.1587 -0.8426 0.5147
vn 0.1587 -0.8426 0.5147
vn 0.4530 -0.5829 0.6745
vn 0.4530 -0.5829 0.6745
vn 0.0532 -0.9619 0.2682
vn 0.3088 -0.8731 -0.3774
vn -0.0290 -0.0500 -0.9983
vn 0.1391 0.6475 -0.7492
vn -0.0290 -0.0500 -0.9983
vn 0.1735 0.8254 -0.5372
vn 0.1735 0.8254 -0.5372
vn 0.1391 0.6475 -0.7492
vn 0.1391 0.6475 -0.7492
vn 0.2189 0.8957 0.3871
vn 0.3132 0.8718 0.3768
vn -0.0268 0.9423 -0.3337
vn -0.0268 0.9423 -0.3337
vn 0.3155 0.6612 -0.6807
vn 0.1062 0.1157 0.9876
vn 0.1062 0.1157 0.9876
vn 0.1062 0.1157 0.9876
vn 0.1262 0.0624 0.9900
vn -0.0858 0.5671 0.8192
vn -0.0858 0.5671 0.8192
vn 0.0782 -0.6945 0.7152
vn 0.1262 0.0624 0.9900
vn 0.0782 -0.6945 0.7152
vn -0.1262 -0.0624 -0.9900
vn 0.0858 -0.5671 -0.8192
vn -0.1262 -0.0624 -0.9900
vn 0.1213 -0.6391 -0.7595
vn 0.1213 -0.6391 -0.7595
vn 0.1213 -0.6391 -0.7595
vn 0.8605 -0.1609 -0.4833
vn 0.8605 -0.1609 -0.4833
vn 0.8605 -0.1609 -0.4833
vn 0.0761 -0.8523 0.5176
vn 0.0761 -0.8523 0.5176
vn 0.0761 -0.8523 0.5176
vn 0.3727 -0.4999 0.7818
vn 0.3727 -0.4999 0.7818
vn 0.3727 -0.4999 0.7818
vn -0.2755 0.8945 0.3521
vn -0.2755 0.8945 0.3521
vn 0.4860 0.8130 0.3206
vn 0.4159 0.4864 -0.7684
vn 0.4159 0.4864 -0.7684
vn 0.4159 0.4864 -0.7684
vn -0.0666 0.8235 0.5633
vn -0.0666 0.8235 0.5633
vn -0.0666 0.8235 0.5633
vn -0.5148 0.2440 0.8218
vn -0.8112 -0.0124 0.5847
vn -0.5148 0.2440 0.8218
vn 0.4671 -0.1871 0.8642
vn 0.4671 -0.1871 0.8642
vn 0.4671 -0.1871 0.8642
vn 0.9815 0.0273 -0.1897
vn 0.9888 -0.1061 -0.1052
vn 0.5884 -0.2454 -0.7704
vn 0.7412 0.3996 -0.5394
vn 0.9938 0.0976 -0.0541
vn 0.9815 0.0273 -0.1897
vn 0.9927 0.1136 0.0401
vn 0.9938 0.0976 -0.0541
vn 0.8832 0.4649 -0.0623
vn -0.9081 -0.1574 -0.3880
vn -0.9674 0.0208 -0.2524
vn -0.9674 0.0208 -0.2524
vn 0.5884 -0.2454 -0.7704
vn 0.3792 -0.3747 -0.8460
vn 0.3792 -0.3747 -0.8460
vn 0.0927 -0.9914 0.0926
vn 0.0927 -0.9914 0.0926
vn 0.0927 -0.9914 0.0926
vn -0.1368 -0.7878 0.6005
vn -0.1368 -0.7878 0.6005
vn -0.1368 -0.7878 0.6005
vn 0.3215 -0.7165 0.6190
vn 0.3215 -0.7165 0.6190
vn 0.3215 -0.7165 0.6190
vn -0.8112 -0.0124 0.5847
vn -0.8624 -0.3264 0.3870
vn -0.3047 -0.3048 0.9023
vn 0.1461 0.2036 0.9681
vn 0.1461 0.2036 0.9681
vn 0.1461 0.2036 0.9681
vn 0.8375 0.4077 0.3639
vn 0.9927 0.1136 0.0401
vn 0.4766 0.7372 0.4789
vn -0.4380 0.8894 0.1310
vn 0.4766 0.7372 0.4789
vn -0.2001 0.9243 0.3252
vn 0.0004 0.9813 -0.1926
vn -0.4380 0.8894 0.1310
vn 0.0146 0.9995 0.0297
vn 0.0004 0.9813 -0.1926
vn -0.3392 0.8357 -0.4319
vn -0.8873 0.3182 -0.3338
vn 0.5012 0.6234 -0.6001
vn 0.7412 0.3996 -0.5394
vn 0.5012 0.6234 -0.6001
vn -0.4866 0.3891 -0.7822
vn -0.4866 0.3891 -0.7822
vn -0.8873 0.3182 -0.3338
vn -0.2510 0.4582 -0.8527
vn -0.8873 0.3182 -0.3338
vn -0.2510 0.4582 -0.8527
vn -0.9890 0.1454 -0.0282
vn 0.0004 0.9813 -0.1926
vn -0.8873 0.3182 -0.3338
vn -0.9081 -0.1574 -0.3880
vn -0.9433 0.0324 -0.3304
vn -0.6213 -0.1400 -0.7709
vn -0.9081 -0.1574 -0.3880
vn -0.6784 -0.5610 -0.4743
vn -0.9340 -0.3289 -0.1392
vn 0.0832 -0.9176 -0.3886
vn 0.0832 -0.9176 -0.3886
vn 0.0832 -0.9176 -0.3886
vn -0.9832 0.1748 0.0528
vn -0.9137 0.2441 0.3249
vn -0.7340 0.5114 0.4470
vn 0.4846 0.8267 0.2859
vn 0.4766 0.7372 0.4789
vn 0.4846 0.8267 0.2859
vn -0.9832 0.1748 0.0528
vn -0.9942 0.0972 -0.0454
vn -0.9942 0.0972 -0.0454
vn -0.4014 0.9117 0.0883
vn -0.4014 0.9117 0.0883
vn 0.0004 0.9813 -0.1926
vn -0.9948 0.0228 0.0995
vn -0.9948 0.0228 0.0995
vn -0.9137 0.2441 0.3249
vn -0.8112 -0.0124 0.5847
vn -0.9137 0.2441 0.3249
vn -0.9951 0.0230 0.0964
vn -0.9964 -0.0169 0.0834
vn -0.6725 -0.3093 0.6724
vn -0.8112 -0.0124 0.5847
vn -0.8624 -0.3264 0.3870
vn -0.8112 -0.0124 0.5847
vn -0.6725 -0.3093 0.6724
vn -1.0000 0.0016 -0.0093
vn -1.0000 0.0016 -0.0093
vn -0.9433 0.0324 -0.3304
vn -0.6725 -0.3093 0.6724
vn -0.9998 -0.0112 0.0164
vn -0.8624 -0.3264 0.3870
vn -0.9242 -0.3697 0.0959
vn -0.8624 -0.3264 0.3870
vn -0.9988 -0.0413 0.0257
vn -0.9340 -0.3289 -0.1392
vn -0.9078 -0.4185 0.0278
vn -0.5457 -0.8380 -0.0020
vn -0.8873 0.3182 -0.3338
vn -0.9433 0.0324 -0.3304
vn -0.9987 0.0330 -0.0377
vn -0.9992 0.0318 -0.0238
vn -0.9992 0.0318 -0.0238
vn -0.8873 0.3182 -0.3338
vn -0.9890 0.1454 -0.0282
vn -0.8873 0.3182 -0.3338
vn -0.9998 0.0076 -0.0205
vn -0.9137 0.2441 0.3249
vn -0.9832 0.1748 0.0528
vn -0.9996 -0.0181 0.0224
vn -0.9398 -0.3335 -0.0742
vn -0.9242 -0.3697 0.0959
vn -0.5457 -0.8380 -0.0020
vn -1.0000 0.0010 0.0002
vn -1.0000 0.0010 0.0002
vn -0.9340 -0.3289 -0.1392
vn -0.9995 -0.0310 0.0092
vn -0.9995 -0.0310 0.0092
vn -0.9242 -0.3697 0.0959
vn -0.9081 -0.1574 -0.3880
vn -0.9340 -0.3289 -0.1392
vn -0.9987 -0.0210 -0.0463
vn -0.9081 -0.1574 -0.3880
vn -0.9987 -0.0226 -0.0464
vn -0.9987 -0.0226 -0.0464
vn -0.9433 0.0324 -0.3304
vn -0.9081 -0.1574 -0.3880
vn -0.9973 -0.0226 -0.0701
vn -1.0000 0.0009 0.0001
vn -1.0000 0.0009 0.0001
vn -0.9890 0.1454 -0.0282
vn -0.9832 0.1748 0.0528
vn -0.9890 0.1454 -0.0282
vn -1.0000 -0.0026 -0.0010
vn -0.9137 0.2441 0.3249
vn -0.9971 0.0521 0.0555
vn -0.9971 0.0521 0.0555
vn -0.4797 0.7974 0.3662
vn 0.0566 0.6825 0.7287
vn -0.3907 0.4407 0.8082
vn -0.7866 -0.2020 -0.5835
vn -0.0947 -0.1211 -0.9881
vn -0.4637 -0.1086 -0.8793
vn 0.0876 -0.4328 -0.8972
vn -0.4637 -0.1086 -0.8793
vn -0.3788 -0.6916 -0.6149
vn -0.3788 -0.6916 -0.6149
vn 0.0881 -0.4324 -0.8974
vn 0.0881 -0.4324 -0.8974
vn -0.1152 -0.7042 -0.7006
vn -0.1152 -0.7042 -0.7006
vn -0.3788 -0.6916 -0.6149
vn -0.0081 -0.9734 -0.2292
vn 0.0451 -0.9094 -0.4135
vn -0.3788 -0.6916 -0.6149
vn -0.3788 -0.6916 -0.6149
vn -0.5457 -0.8380 -0.0020
vn -0.0081 -0.9734 -0.2292
vn -0.0640 -0.9450 0.3208
vn -0.0081 -0.9734 -0.2292
vn -0.5457 -0.8380 -0.0020
vn -0.5457 -0.8380 -0.0020
vn -0.4670 -0.6943 0.5476
vn -0.0640 -0.9450 0.3208
vn -0.0401 -0.6934 0.7194
vn -0.0640 -0.9450 0.3208
vn -0.4670 -0.6943 0.5476
vn -0.0308 -0.3795 0.9247
vn -0.0401 -0.6934 0.7194
vn -0.4670 -0.6943 0.5476
vn -0.4670 -0.6943 0.5476
vn -0.6725 -0.3093 0.6724
vn -0.0308 -0.3795 0.9247
vn -0.6725 -0.3093 0.6724
vn -0.5014 -0.0096 0.8652
vn -0.0308 -0.3795 0.9247
vn -0.0595 -0.0982 0.9934
vn -0.0308 -0.3795 0.9247
vn -0.5014 -0.0096 0.8652
vn -0.5014 -0.0096 0.8652
vn -0.3907 0.4407 0.8082
vn 0.0348 0.2208 0.9747
vn 0.1157 0.6518 0.7495
vn 0.1157 0.6518 0.7495
vn -0.4797 0.7974 0.3662
vn -0.1238 0.8870 0.4448
vn -0.1238 0.8870 0.4448
vn -0.4797 0.7974 0.3662
vn -0.4797 0.7974 0.3662
vn -0.0877 0.9654 0.2456
vn -0.0877 0.9654 0.2456
vn -0.4797 0.7974 0.3662
vn 0.0216 0.9977 0.0640
vn 0.0216 0.9977 0.0640
vn -0.4797 0.7974 0.3662
vn -0.4647 0.8318 -0.3035
vn 0.1025 0.9947 0.0100
vn -0.0687 0.8984 -0.4337
vn -0.0687 0.8984 -0.4337
vn -0.4647 0.8318 -0.3035
vn -0.4647 0.8318 -0.3035
vn -0.4401 0.4647 -0.7684
vn 0.1119 0.7931 -0.5987
vn -0.4401 0.4647 -0.7684
vn -0.0999 0.6135 -0.7834
vn -0.0999 0.6135 -0.7834
vn -0.4401 0.4647 -0.7684
vn -0.0635 0.3601 -0.9308
vn -0.0685 0.3944 -0.9164
vn 0.0236 0.2803 -0.9596
vn -0.0635 0.3601 -0.9308
vn -0.4401 0.4647 -0.7684
vn -0.4401 0.4647 -0.7684
vn -0.4637 -0.1086 -0.8793
vn 0.1261 0.1806 -0.9754
vn -0.3907 0.4407 0.8082
vn -0.0528 0.3298 0.9426
vn -0.0528 0.3298 0.9426
vn -0.3128 0.3514 -0.8824
vn -0.0635 0.3601 -0.9308
vn -0.8470 0.0443 -0.5297
vn -0.9991 -0.0423 0.0008
vn -0.9466 -0.2700 -0.1764
vn -0.9160 -0.3817 -0.1233
vn 0.7160 -0.6884 0.1164
vn 0.7160 -0.6884 0.1164
vn 0.7160 -0.6884 0.1164
vn -0.0640 -0.9450 0.3208
vn -0.0401 -0.6934 0.7194
vn -0.9984 -0.0407 0.0385
vn -0.9984 -0.0407 0.0385
vn -0.9991 -0.0423 0.0008
vn -0.8942 -0.3950 0.2105
vn 0.1754 -0.5547 0.8134
vn -0.0401 -0.6934 0.7194
vn -0.0308 -0.3795 0.9247
vn -0.9994 -0.0097 0.0339
vn -0.9984 -0.0407 0.0385
vn -0.8003 -0.2612 0.5397
vn -0.8267 0.0911 0.5552
vn -0.2132 -0.1075 0.9711
vn -0.0308 -0.3795 0.9247
vn -0.9994 -0.0097 0.0339
vn -0.8267 0.0911 0.5552
vn -1.0000 0.0017 -0.0011
vn -0.9984 -0.0407 0.0385
vn -0.9994 -0.0097 0.0339
vn -1.0000 0.0017 -0.0011
vn -0.9991 -0.0423 0.0008
vn -0.9984 -0.0407 0.0385
vn -1.0000 0.0017 -0.0011
vn -0.9466 -0.2700 -0.1764
vn -0.9991 -0.0423 0.0008
vn -1.0000 0.0017 -0.0011
vn -0.9306 -0.2273 -0.2868
vn -0.9466 -0.2700 -0.1764
vn -1.0000 0.0017 -0.0011
vn -0.7866 -0.2020 -0.5835
vn -0.9306 -0.2273 -0.2868
vn -1.0000 0.0017 -0.0011
vn -0.8470 0.0443 -0.5297
vn -0.7866 -0.2020 -0.5835
vn -1.0000 0.0017 -0.0011
vn -0.9479 0.1731 -0.2674
vn -0.8470 0.0443 -0.5297
vn -1.0000 0.0017 -0.0011
vn -0.8143 0.4599 -0.3540
vn -0.9479 0.1731 -0.2674
vn -1.0000 0.0017 -0.0011
vn -0.8009 0.5946 -0.0701
vn -0.8143 0.4599 -0.3540
vn -1.0000 0.0017 -0.0011
vn -0.9280 0.3695 0.0488
vn -0.8009 0.5946 -0.0701
vn -1.0000 0.0017 -0.0011
vn -0.9329 0.3344 0.1334
vn -0.9280 0.3695 0.0488
vn -1.0000 0.0017 -0.0011
vn -0.9271 0.2826 0.2461
vn -0.9329 0.3344 0.1334
vn -1.0000 0.0017 -0.0011
vn -0.7837 0.3692 0.4996
vn -0.9271 0.2826 0.2461
vn -1.0000 0.0017 -0.0011
vn -0.8267 0.0911 0.5552
vn -0.7837 0.3692 0.4996
vn -1.0000 0.0017 -0.0011
f 36//1 37//2 34//3
f 37//4 35//5 34//6
f 37//7 36//8 86//9
f 88//10 86//11 36//12
f 83//13 88//14 36//15
f 36//16 34//17 83//18
f 81//19 83//20 34//21
f 34//22 35//23 81//24
f 86//25 81//26 35//27
f 35//28 37//29 86//30
f 89//31 95//32 96//33
f 95//34 84//35 96//36
f 87//37 82//38 39//39
f 85//40 84//41 87//42
f 85//43 67//44 84//45
f 82//46 67//47 85//48
f 82//49 69//50 67//51
f 69//52 75//53 67//54
f 70//55 68//56 56//57
f 68//58 70//59 72//60
f 72//61 74//62 68//63
f 72//64 76//65 74//66
f 76//67 92//68 74//69
f 97//70 66//71 94//72
f 93//73 66//74 92//75
f 66//76 93//77 94//78
f 90//79 97//80 94//81
f 90//82 94//83 91//84
f 91//85 93//86 92//87
f 69//88 82//89 78//90
f 78//91 75//92 69//93
f 86//94 90//95 80//96
f 81//97 86//98 80//99
f 79//100 83//101 81//102
f 90//103 86//104 88//105
f 89//106 88//107 83//108
f 89//109 96//110 97//111
f 90//112 89//113 97//114
f 88//115 89//116 90//117
f 82//118 79//119 78//120
f 83//121 79//122 82//123
f 82//124 87//125 83//126
f 89//127 83//128 87//129
f 89//130 87//131 95//132
f 84//133 95//134 87//135
f 56//136 75//137 79//138
f 67//139 75//140 56//141
f 92//142 90//143 91//144
f 80//145 90//146 92//147
f 92//148 76//149 80//150
f 80//151 79//152 81//153
f 56//154 79//155 80//156
f 80//157 70//158 56//159
f 70//160 80//161 77//162
f 76//163 72//164 73//165
f 80//166 76//167 77//168
f 77//169 71//170 70//171
f 72//172 70//173 71//174
f 71//175 73//176 72//177
f 95//178 89//179 12//180
f 31//181 12//182 89//183
f 89//184 95//185 31//186
f 24//187 31//188 95//189
f 12//190 24//191 95//192
f 12//193 31//194 24//195
f 78//196 79//197 25//198
f 30//199 25//200 79//201
f 32//202 30//203 79//204
f 79//205 75//206 32//207
f 28//208 32//209 75//210
f 25//211 28//212 75//213
f 75//214 78//215 25//216
f 25//217 30//218 32//219
f 25//220 32//221 28//222
f 71//223 77//224 29//225
f 33//226 29//227 77//228
f 77//229 76//230 33//231
f 76//232 73//233 33//234
f 29//235 33//236 73//237
f 73//238 71//239 29//240
f 93//241 91//242 26//243
f 91//244 94//245 26//246
f 13//247 26//248 94//249
f 27//250 13//251 94//252
f 26//253 27//254 94//255
f 94//256 93//257 26//258
f 13//259 27//260 26//261
f 85//262 87//263 39//264
f 39//265 38//266 85//267
f 82//268 85//269 38//270
f 38//271 39//272 82//273
f 97//274 52//275 66//276
f 66//277 61//278 92//279
f 61//280 74//281 92//282
f 84//283 67//284 64//285
f 63//286 96//287 84//288
f 97//289 96//290 65//291
f 49//292 84//293 64//294
f 64//295 67//296 49//297
f 56//298 68//299 62//300
f 59//301 62//302 68//303
f 68//304 74//305 59//306
f 61//307 59//308 74//309
f 52//310 61//311 66//312
f 52//313 97//314 60//315
f 58//316 60//317 97//318
f 65//319 58//320 97//321
f 65//322 96//323 57//324
f 96//325 63//326 57//327
f 63//328 84//329 57//330
f 51//331 57//332 84//333
f 55//334 65//335 57//336
f 49//337 51//338 84//339
f 49//340 67//341 48//342
f 67//343 56//344 48//345
f 54//346 52//347 60//348
f 54//349 60//350 58//351
f 54//352 58//353 65//354
f 55//355 54//356 65//357
f 45//358 44//359 52//360
f 61//361 52//362 44//363
f 44//364 43//365 61//366
f 59//367 61//368 43//369
f 50//370 53//371 51//372
f 43//373 41//374 59//375
f 62//376 59//377 41//378
f 48//379 56//380 40//381
f 57//382 51//383 53//384
f 53//385 46//386 57//387
f 55//388 57//389 46//390
f 52//391 54//392 47//393
f 56//394 62//395 40//396
f 40//397 42//398 48//399
f 41//400 40//401 62//402
f 49//403 48//404 42//405
f 49//406 42//407 50//408
f 51//409 49//410 50//411
f 46//412 47//413 55//414
f 54//415 55//416 47//417
f 52//418 47//419 45//420
f 47//421 17//422 45//423
f 23//424 6//425 50//426
f 23//427 50//428 42//429
f 42//430 3//431 23//432
f 19//433 3//434 42//435
f 15//436 19//437 42//438
f 42//439 40//440 15//441
f 14//442 15//443 40//444
f 40//445 41//446 14//447
f 22//448 14//449 41//450
f 21//451 22//452 41//453
f 41//454 43//455 21//456
f 43//457 44//458 21//459
f 7//460 21//461 44//462
f 44//463 45//464 7//465
f 16//466 17//467 47//468
f 10//469 16//470 47//471
f 47//472 20//473 10//474
f 47//475 11//476 20//477
f 47//478 46//479 11//480
f 9//481 11//482 46//483
f 46//484 53//485 9//486
f 53//487 8//488 9//489
f 53//490 18//491 8//492
f 6//493 18//494 53//495
f 53//496 50//497 6//498
f 45//499 17//500 7//501
f 8//502 18//503 6//504
f 1//505 19//506 15//507
f 15//508 14//509 1//510
f 14//511 22//512 2//513
f 2//514 1//515 14//516
f 2//517 22//518 21//519
f 4//520 2//521 21//522
f 7//523 4//524 21//525
f 4//526 7//527 5//528
f 2//529 4//530 5//531
f 1//532 2//533 5//534
f 19//535 1//536 5//537
f 3//538 19//539 5//540
f 23//541 3//542 5//543
f 6//544 23//545 5//546
f 8//547 6//548 5//549
f 9//550 8//551 5//552
f 11//553 9//554 5//555
f 20//556 11//557 5//558
f 10//559 20//560 5//561
f 16//562 10//563 5//564
f 17//565 16//566 5//567
f 7//568 17//569 5//570
