# decimated from Yaskawa CAD (ROS-Industrial motoman, BSD-3-Clause)
v 0.067517 -0.024490 0.000678
v 0.067621 -0.023950 0.006630
v 0.067771 -0.021973 -0.012816
v 0.067517 -0.013132 0.010169
v 0.067517 -0.013261 -0.011140
v 0.067517 -0.012451 -0.012902
v 0.067517 -0.012559 -0.009501
v 0.067517 -0.011868 0.009141
v 0.067517 -0.011336 -0.009062
v 0.067517 -0.011237 0.009024
v 0.067517 -0.011137 -0.013253
v 0.067517 -0.010937 -0.009062
v 0.067517 -0.010390 -0.013144
v 0.067517 -0.010545 -0.009138
v 0.067517 -0.010487 0.009098
v 0.067517 -0.010175 -0.009286
v 0.067517 -0.012036 0.013413
v 0.067517 -0.009666 -0.009638
v 0.067517 -0.009762 0.009534
v 0.067517 -0.009688 -0.012672
v 0.067517 -0.009070 0.010444
v 0.067517 -0.009426 -0.012371
v 0.067517 -0.009318 -0.010103
v 0.067517 -0.009152 -0.010466
v 0.067517 -0.009296 0.012231
v 0.067517 -0.009148 -0.011863
v 0.067517 -0.009058 -0.010854
v 0.067517 -0.009039 -0.011252
v 0.067779 -0.008047 0.023762
v 0.067517 -0.003112 -0.024317
v 0.067661 -0.002956 -0.024618
v 0.067813 0.006151 0.024418
v 0.067855 0.006487 -0.024367
v 0.067517 0.006508 0.023604
v 0.067518 0.010569 0.022114
v 0.067517 0.009047 -0.011352
v 0.067517 0.009047 -0.010953
v 0.067517 0.009058 0.010822
v 0.067517 0.009183 -0.010366
v 0.067517 0.009081 0.011667
v 0.067517 0.009183 -0.011937
v 0.067517 0.009589 0.009540
v 0.067517 0.009426 0.012339
v 0.067517 0.009486 -0.009854
v 0.067517 0.009688 0.012641
v 0.067517 0.009857 -0.012874
v 0.067517 0.010002 0.012888
v 0.067517 0.010249 -0.009205
v 0.067517 0.010838 -0.013231
v 0.067517 0.010937 0.009031
v 0.067517 0.011237 -0.013250
v 0.067517 0.011237 -0.009055
v 0.067517 0.011445 0.013322
v 0.067517 0.011337 0.009031
v 0.067517 0.011632 -0.013193
v 0.067517 0.011632 -0.009112
v 0.067517 0.011729 0.009106
v 0.067517 0.013543 -0.011748
v 0.067517 0.012009 -0.009242
v 0.067517 0.012099 0.009255
v 0.067517 0.012355 -0.009442
v 0.067517 0.012435 0.009471
v 0.067517 0.013446 0.011138
v 0.067657 0.015639 0.019254
v 0.067517 0.011886 -0.021714
v 0.067518 0.019903 -0.014405
v 0.067513 0.024605 -0.002592
v 0.068405 0.024142 0.006984
v 0.068400 0.018427 -0.017229
v 0.067676 -0.024856 -0.000231
v 0.067618 -0.010628 -0.022577
v 0.067623 0.021594 0.012581
v 0.067676 -0.018288 0.017267
v 0.067958 0.024647 -0.005588
v 0.074015 -0.002609 -0.016981
v 0.074014 -0.000234 -0.013062
v 0.074016 0.002593 -0.017241
v 0.075015 -0.003823 -0.005207
v 0.075016 0.006976 -0.002107
v 0.075018 -0.004128 0.006144
v 0.077524 -0.014993 0.020378
v 0.077512 0.017763 0.017981
v 0.077517 -0.024908 0.006189
v 0.077516 -0.015026 -0.020356
v 0.077514 0.000033 -0.025466
v 0.076991 -0.001301 0.025558
v 0.077514 0.009482 0.023192
v 0.077516 0.024348 0.006730
v 0.077550 0.018355 -0.018610
v 0.076634 0.026945 -0.007856
v 0.077654 -0.030022 0.001407
v 0.077022 -0.026995 -0.007381
v 0.077534 -0.024105 0.018887
v 0.077587 -0.011417 -0.027774
v 0.077752 0.003791 -0.030040
v 0.077561 0.015924 -0.025248
v 0.077549 0.022943 0.020704
v 0.077984 -0.002606 0.030283
v 0.078908 0.025958 -0.015659
v 0.078651 0.030124 0.006303
v 0.077568 0.024432 -0.017867
v 0.079471 -0.028140 -0.011492
v 0.077923 0.011577 0.028093
v 0.079572 0.016951 0.024787
v 0.079540 -0.029836 0.006315
v 0.079328 -0.010330 -0.029242
v 0.079020 0.024564 0.017904
v 0.077881 -0.021656 -0.021196
v 0.079516 0.008043 -0.028943
v 0.078690 -0.011910 0.028425
v 0.079518 -0.024316 0.017632
v 0.079508 0.003003 0.029918
v 0.079708 0.017661 -0.024670
v 0.079761 0.028923 0.007803
v 0.080094 -0.020180 -0.023821
v 0.080012 -0.025579 0.015279
v 0.080017 -0.021368 -0.013259
v 0.080025 -0.029766 0.001347
v 0.080017 -0.021368 0.007503
v 0.080017 -0.013483 0.010748
v 0.080017 -0.010316 0.013406
v 0.080017 -0.012009 0.009211
v 0.080017 -0.013036 -0.012450
v 0.080017 -0.012607 -0.009482
v 0.080017 -0.011534 -0.013215
v 0.080017 -0.010930 0.008990
v 0.080017 -0.011137 -0.013253
v 0.080017 -0.010831 -0.009064
v 0.079933 -0.017457 0.024376
v 0.080017 -0.010175 -0.009286
v 0.080017 -0.010282 -0.013100
v 0.080017 -0.010087 0.009303
v 0.080017 -0.009762 0.009534
v 0.080017 -0.009732 -0.009581
v 0.080017 -0.009500 -0.012481
v 0.080017 -0.009248 -0.010216
v 0.080017 -0.009146 -0.011842
v 0.080017 -0.009033 0.010564
v 0.080017 -0.009035 -0.010985
v 0.080017 -0.007518 -0.013259
v 0.080017 -0.007518 -0.007534
v 0.080014 -0.001134 0.029906
v 0.080017 -0.000210 -0.012924
v 0.080017 -0.005702 0.002509
v 0.079968 0.002166 -0.029737
v 0.080016 -0.001891 0.005775
v 0.080018 -0.003218 -0.005990
v 0.080020 0.000126 -0.018521
v 0.080017 0.004250 -0.013259
v 0.080017 0.005885 0.017891
v 0.080017 0.007519 -0.013259
v 0.080016 0.007069 0.002080
v 0.080017 0.007519 0.007503
v 0.080019 0.017522 -0.024794
v 0.080017 0.009065 -0.010766
v 0.080017 0.009110 -0.011708
v 0.080017 0.009426 0.012339
v 0.080017 0.009688 0.012641
v 0.080017 0.010002 0.012888
v 0.080017 0.008949 0.010237
v 0.080017 0.010357 0.013071
v 0.080017 0.009762 -0.012841
v 0.080017 0.012274 0.013153
v 0.080017 0.010831 0.009033
v 0.080017 0.010838 -0.013231
v 0.080017 0.009901 -0.009284
v 0.080017 0.011237 -0.013250
v 0.080017 0.011337 0.009031
v 0.080017 0.011632 -0.009112
v 0.080017 0.011729 0.009106
v 0.080017 0.012009 -0.009242
v 0.080017 0.012099 0.009255
v 0.080017 0.012355 -0.009442
v 0.080017 0.012657 -0.009703
v 0.080017 0.013109 -0.010356
v 0.080017 0.012917 -0.012617
v 0.080017 0.013162 0.010277
v 0.080026 0.015955 0.025323
v 0.080017 0.025674 -0.014546
v 0.080017 0.025400 0.015224
v 0.079877 0.028935 -0.007692
v 0.080017 0.028527 -0.007528
v 0.080017 0.028527 0.007497
v 0.080020 0.029733 0.000173
vn 0.8785 0.2850 0.3833
vn 0.7859 -0.5499 0.2826
vn 0.8374 0.2560 -0.4830
vn 0.8374 0.2560 -0.4830
vn 0.5642 -0.4924 -0.6627
vn 0.9924 -0.1102 -0.0539
vn 0.1017 -0.3792 -0.9197
vn 0.1017 -0.3792 -0.9197
vn 0.1017 -0.3792 -0.9197
vn -0.3280 0.6146 -0.7174
vn -0.3280 0.6146 -0.7174
vn -0.3280 0.6146 -0.7174
vn 0.4517 0.8564 0.2503
vn 0.8694 0.1688 0.4643
vn 0.4517 0.8564 0.2503
vn -0.1159 0.9929 0.0267
vn -0.1159 0.9929 0.0267
vn -0.1159 0.9929 0.0267
vn 0.1808 -0.2714 0.9453
vn 0.1808 -0.2714 0.9453
vn 0.1808 -0.2714 0.9453
vn -0.5434 -0.5182 0.6604
vn -0.5434 -0.5182 0.6604
vn -0.5434 -0.5182 0.6604
vn 0.9987 0.0500 0.0004
vn 0.9997 0.0118 0.0197
vn 1.0000 -0.0001 0.0001
vn 0.9924 -0.1102 -0.0539
vn 1.0000 0.0036 -0.0059
vn 0.9987 0.0500 0.0004
vn 1.0000 -0.0001 0.0001
vn 0.9924 -0.1102 -0.0539
vn 0.9987 0.0500 0.0004
vn 1.0000 0.0000 0.0000
vn 1.0000 0.0000 0.0000
vn 1.0000 0.0000 0.0002
vn 1.0000 0.0000 0.0002
vn 1.0000 -0.0000 0.0000
vn 1.0000 -0.0000 0.0000
vn 1.0000 -0.0000 0.0000
vn 1.0000 -0.0000 0.0000
vn 1.0000 0.0036 -0.0059
vn 1.0000 0.0036 -0.0059
vn 1.0000 -0.0000 0.0000
vn 0.8072 -0.5836 -0.0888
vn 0.9924 -0.1102 -0.0539
vn 1.0000 -0.0000 0.0001
vn 0.9900 -0.0008 -0.1413
vn 0.9900 -0.0008 -0.1413
vn 1.0000 0.0036 -0.0059
vn 0.9924 -0.1102 -0.0539
vn 0.9900 -0.0008 -0.1413
vn 1.0000 -0.0000 0.0000
vn 1.0000 0.0036 -0.0059
vn 1.0000 0.0036 -0.0059
vn 1.0000 0.0000 0.0000
vn 1.0000 0.0000 0.0000
vn 0.7146 0.6849 -0.1427
vn 1.0000 0.0036 -0.0059
vn 0.8072 -0.5836 -0.0888
vn 1.0000 0.0000 -0.0000
vn 1.0000 0.0000 -0.0000
vn 1.0000 0.0000 0.0002
vn 0.8871 -0.3408 0.3115
vn 0.9977 0.0597 -0.0332
vn 0.7146 0.6849 -0.1427
vn 0.8072 -0.5836 -0.0888
vn 0.8871 -0.3408 0.3115
vn 0.7146 0.6849 -0.1427
vn 0.9924 -0.1102 -0.0539
vn 0.6704 0.7160 -0.1946
vn 1.0000 -0.0001 0.0001
vn 0.8871 -0.3408 0.3115
vn 1.0000 0.0000 0.0000
vn 0.9977 0.0597 -0.0332
vn 1.0000 0.0000 0.0002
vn 0.9977 0.0597 -0.0332
vn 1.0000 -0.0000 0.0000
vn 0.9985 0.0338 -0.0442
vn 0.9977 0.0597 -0.0332
vn 1.0000 0.0000 0.0002
vn 0.9973 0.0081 0.0727
vn 0.9944 -0.0720 -0.0769
vn 0.9945 -0.0003 -0.1050
vn 1.0000 -0.0005 -0.0014
vn 0.9945 -0.0040 -0.1045
vn 0.9973 0.0081 0.0727
vn 1.0000 0.0000 0.0002
vn 1.0000 -0.0005 -0.0014
vn 0.9985 0.0338 -0.0442
vn 1.0000 -0.0005 -0.0014
vn 0.9945 -0.0003 -0.1050
vn 0.9985 0.0338 -0.0442
vn 0.9973 0.0081 0.0727
vn 0.9945 -0.0003 -0.1050
vn 1.0000 -0.0005 -0.0014
vn 0.9945 -0.0040 -0.1045
vn 0.9944 -0.0720 -0.0769
vn 0.9973 0.0081 0.0727
vn 0.9944 -0.0720 -0.0769
vn 0.9945 -0.0040 -0.1045
vn 1.0000 -0.0001 0.0059
vn 1.0000 -0.0001 0.0059
vn 1.0000 0.0034 0.0047
vn 0.9944 -0.0720 -0.0769
vn 1.0000 0.0034 0.0047
vn 0.9995 -0.0320 -0.0038
vn 0.9944 -0.0720 -0.0769
vn 0.9985 -0.0474 0.0286
vn 0.9995 -0.0320 -0.0038
vn 1.0000 0.0001 0.0006
vn 1.0000 0.0001 0.0006
vn 1.0000 0.0000 -0.0000
vn 0.9375 0.3431 -0.0575
vn 1.0000 -0.0000 0.0000
vn 1.0000 -0.0000 0.0000
vn 0.9979 0.0637 -0.0070
vn 1.0000 0.0001 0.0006
vn 0.9979 0.0637 -0.0070
vn 0.9022 -0.0064 0.4313
vn 0.9022 -0.0064 0.4313
vn 1.0000 0.0000 -0.0001
vn 1.0000 0.0001 0.0006
vn 0.9979 0.0637 -0.0070
vn 1.0000 -0.0000 -0.0000
vn 0.9022 -0.0064 0.4313
vn 0.9972 0.0012 0.0751
vn 0.9871 -0.0916 0.1313
vn 0.9611 -0.0568 -0.2704
vn 0.9985 -0.0474 0.0286
vn 1.0000 0.0001 0.0006
vn 0.9375 0.3431 -0.0575
vn 0.9979 0.0637 -0.0070
vn 0.9319 -0.3594 -0.0495
vn 1.0000 0.0000 0.0000
vn 0.9871 -0.0916 0.1313
vn 0.9985 -0.0474 0.0286
vn 0.9375 0.3431 -0.0575
vn 0.9375 0.3431 -0.0575
vn 0.9611 -0.0568 -0.2704
vn 0.9871 -0.0916 0.1313
vn 0.9925 0.0525 0.1105
vn 0.9972 0.0012 0.0751
vn 1.0000 -0.0003 -0.0001
vn 0.9997 0.0118 0.0197
vn 0.9267 -0.3663 0.0847
vn 1.0000 -0.0000 -0.0000
vn 0.9997 0.0118 0.0197
vn 1.0000 0.0000 0.0000
vn 1.0000 0.0000 0.0000
vn 0.9997 0.0118 0.0197
vn 1.0000 0.0000 0.0000
vn 0.9062 -0.0482 0.4200
vn 0.9062 -0.0482 0.4200
vn 1.0000 -0.0001 0.0001
vn 0.9997 0.0118 0.0197
vn 0.9062 -0.0482 0.4200
vn 1.0000 0.0000 0.0000
vn 1.0000 -0.0001 0.0001
vn 1.0000 0.0000 -0.0000
vn 1.0000 0.0000 -0.0000
vn 1.0000 -0.0001 0.0001
vn 1.0000 0.0000 -0.0000
vn 1.0000 0.0000 -0.0000
vn 1.0000 -0.0003 -0.0001
vn 1.0000 -0.0003 -0.0001
vn 1.0000 0.0000 0.0000
vn 1.0000 0.0000 0.0000
vn 1.0000 -0.0000 -0.0000
vn 0.9598 -0.2018 -0.1953
vn 1.0000 -0.0003 -0.0001
vn 0.9925 0.0525 0.1105
vn 1.0000 -0.0003 -0.0001
vn 0.9598 -0.2018 -0.1953
vn 1.0000 0.0000 0.0000
vn 1.0000 0.0000 0.0000
vn 1.0000 -0.0003 -0.0001
vn 1.0000 -0.0003 -0.0001
vn 1.0000 0.0000 0.0000
vn 1.0000 0.0000 0.0000
vn 0.9977 0.0607 0.0309
vn 0.9925 0.0525 0.1105
vn 0.9598 -0.2018 -0.1953
vn 0.9598 -0.2018 -0.1953
vn 0.9267 -0.3663 0.0847
vn 0.9977 0.0607 0.0309
vn 0.9997 0.0118 0.0197
vn 0.9673 0.2389 0.0850
vn 0.9267 -0.3663 0.0847
vn 0.9673 0.2389 0.0850
vn 0.9977 0.0607 0.0309
vn 0.9267 -0.3663 0.0847
vn 1.0000 0.0002 -0.0001
vn 0.9945 -0.0040 -0.1045
vn 0.8694 0.1688 0.4643
vn 1.0000 0.0002 -0.0001
vn 0.8694 0.1688 0.4643
vn 0.9979 0.0637 -0.0070
vn 1.0000 -0.0001 0.0001
vn 1.0000 -0.0003 -0.0001
vn 0.9924 -0.1102 -0.0539
vn 1.0000 -0.0003 -0.0001
vn 0.9979 0.0637 -0.0070
vn 0.9239 -0.0128 -0.3824
vn 0.9239 -0.0128 -0.3824
vn 0.9924 -0.1102 -0.0539
vn 1.0000 -0.0003 -0.0001
vn 1.0000 -0.0003 -0.0001
vn 1.0000 -0.0001 0.0001
vn 1.0000 -0.0000 -0.0000
vn 1.0000 -0.0003 -0.0001
vn 0.9972 0.0012 0.0751
vn 0.9979 0.0637 -0.0070
vn 0.9979 0.0637 -0.0070
vn 0.9972 0.0012 0.0751
vn 0.9319 -0.3594 -0.0495
vn 0.9972 0.0012 0.0751
vn 0.9611 -0.0568 -0.2704
vn 0.9319 -0.3594 -0.0495
vn 1.0000 0.0000 0.0000
vn 1.0000 0.0000 0.0000
vn 1.0000 -0.0001 0.0059
vn 1.0000 -0.0000 -0.0000
vn 1.0000 -0.0000 -0.0000
vn 1.0000 -0.0001 0.0059
vn 1.0000 -0.0000 0.0000
vn 1.0000 -0.0000 0.0000
vn 1.0000 0.0002 -0.0001
vn 1.0000 -0.0000 0.0000
vn 1.0000 -0.0000 0.0000
vn 1.0000 0.0002 -0.0001
vn 1.0000 0.0000 0.0001
vn 1.0000 0.0000 0.0001
vn 1.0000 -0.0001 0.0059
vn 1.0000 0.0034 0.0047
vn 1.0000 -0.0001 0.0059
vn 1.0000 0.0000 0.0000
vn 1.0000 0.0000 0.0000
vn 1.0000 0.0000 0.0000
vn 1.0000 0.0034 0.0047
vn 1.0000 0.0000 -0.0001
vn 0.9346 0.3365 0.1149
vn 1.0000 0.0034 0.0047
vn 1.0000 -0.0000 0.0000
vn 1.0000 -0.0000 0.0000
vn 1.0000 0.0002 -0.0001
vn 1.0000 0.0000 0.0000
vn 1.0000 0.0000 0.0000
vn 1.0000 -0.0001 0.0059
vn 0.9995 -0.0320 -0.0038
vn 1.0000 0.0034 0.0047
vn 0.9346 0.3365 0.1149
vn 0.9346 0.3365 0.1149
vn 0.8596 0.4076 -0.3081
vn 0.9995 -0.0320 -0.0038
vn 1.0000 0.0002 -0.0001
vn 0.9995 -0.0320 -0.0038
vn 0.8596 0.4076 -0.3081
vn 0.8596 0.4076 -0.3081
vn 1.0000 0.0001 -0.0002
vn 1.0000 0.0002 -0.0001
vn 1.0000 0.0002 -0.0001
vn 1.0000 0.0000 0.0000
vn 1.0000 0.0000 0.0000
vn 1.0000 -0.0001 0.0059
vn 1.0000 0.0002 -0.0001
vn 1.0000 0.0000 -0.0000
vn 0.9945 -0.0040 -0.1045
vn 1.0000 0.0002 -0.0001
vn 1.0000 -0.0001 0.0059
vn 0.9945 -0.0040 -0.1045
vn 1.0000 -0.0005 -0.0014
vn 0.8694 0.1688 0.4643
vn 0.9924 -0.1102 -0.0539
vn 0.8694 0.1688 0.4643
vn 1.0000 -0.0005 -0.0014
vn 1.0000 -0.0005 -0.0014
vn 1.0000 0.0000 0.0002
vn 0.9924 -0.1102 -0.0539
vn 0.9924 -0.1102 -0.0539
vn 1.0000 0.0000 0.0002
vn 0.6704 0.7160 -0.1946
vn 1.0000 0.0000 0.0002
vn 1.0000 0.0000 0.0000
vn 0.6704 0.7160 -0.1946
vn 0.9995 -0.0320 -0.0038
vn 1.0000 0.0002 -0.0001
vn 0.9979 0.0637 -0.0070
vn 0.9979 0.0637 -0.0070
vn 1.0000 0.0001 0.0006
vn 0.9995 -0.0320 -0.0038
vn 0.0163 -0.8281 -0.5603
vn 0.2418 -0.9488 0.2034
vn 0.0163 -0.8281 -0.5603
vn -0.3895 -0.9194 -0.0553
vn -0.3895 -0.9194 -0.0553
vn 0.2418 -0.9488 0.2034
vn 0.2273 0.0484 0.9726
vn 0.2273 0.0484 0.9726
vn 0.2273 0.0484 0.9726
vn -0.4023 0.9139 0.0546
vn -0.4023 0.9139 0.0546
vn 0.2174 0.9287 0.3005
vn 0.0084 0.8552 -0.5183
vn 0.0084 0.8552 -0.5183
vn 0.0084 0.8552 -0.5183
vn 1.0000 -0.0002 0.0003
vn 1.0000 -0.0002 0.0003
vn 1.0000 -0.0002 0.0003
vn -0.0014 1.0000 0.0000
vn -0.0014 1.0000 0.0000
vn 0.6704 0.7160 -0.1946
vn 0.6704 0.7160 -0.1946
vn 0.1220 0.9472 0.2965
vn -0.0037 0.9989 0.0477
vn 0.0015 0.9740 0.2263
vn 0.0015 0.9740 0.2263
vn 0.1220 0.9472 0.2965
vn 0.1220 0.9472 0.2965
vn 0.0750 0.6381 0.7663
vn -0.0041 0.8668 0.4987
vn 0.0046 0.8117 0.5840
vn 0.0046 0.8117 0.5840
vn 0.0750 0.6381 0.7663
vn -0.3318 0.2809 0.9006
vn 0.0001 0.3418 0.9398
vn 0.0750 0.6381 0.7663
vn 0.0750 0.6381 0.7663
vn 0.0582 0.2224 0.9732
vn -0.3318 0.2809 0.9006
vn -0.4121 -0.0145 0.9110
vn -0.3318 0.2809 0.9006
vn 0.0582 0.2224 0.9732
vn 0.0582 0.2224 0.9732
vn 0.4509 -0.2338 0.8614
vn -0.4121 -0.0145 0.9110
vn -0.3251 -0.4466 0.8336
vn -0.4121 -0.0145 0.9110
vn 0.4509 -0.2338 0.8614
vn 0.4509 -0.2338 0.8614
vn -0.0069 -0.3528 0.9357
vn -0.3251 -0.4466 0.8336
vn 0.0252 -0.6030 0.7974
vn -0.3251 -0.4466 0.8336
vn 0.0252 -0.6030 0.7974
vn -0.0440 -0.9955 0.0843
vn -0.0440 -0.9955 0.0843
vn -0.0440 -0.9955 0.0843
vn 0.0347 -0.8219 -0.5686
vn 0.3379 -0.8059 -0.4861
vn 0.0347 -0.8219 -0.5686
vn -0.5705 -0.6843 -0.4542
vn 0.0119 -0.8888 -0.4580
vn 0.3379 -0.8059 -0.4861
vn 0.3379 -0.8059 -0.4861
vn 0.5035 -0.4784 -0.7194
vn -0.5705 -0.6843 -0.4542
vn 0.0000 -0.5004 -0.8658
vn -0.5705 -0.6843 -0.4542
vn 0.5035 -0.4784 -0.7194
vn 0.5035 -0.4784 -0.7194
vn 0.4095 -0.3520 -0.8417
vn 0.0000 -0.5004 -0.8658
vn 0.0000 -0.3260 -0.9454
vn 0.0000 -0.3260 -0.9454
vn 0.4095 -0.3520 -0.8417
vn 0.4095 -0.3520 -0.8417
vn 0.0000 -0.3260 -0.9454
vn 0.0000 -0.3260 -0.9454
vn 0.0000 -0.1428 -0.9897
vn 0.0000 -0.1428 -0.9897
vn 0.0000 -0.1428 -0.9897
vn -0.0077 0.0990 -0.9951
vn 0.4400 0.4849 -0.7558
vn -0.0077 0.0990 -0.9951
vn -0.0021 0.1500 -0.9887
vn -0.0021 0.1500 -0.9887
vn 0.4400 0.4849 -0.7558
vn 0.0132 0.6477 -0.7617
vn 0.0132 0.6477 -0.7617
vn 0.4400 0.4849 -0.7558
vn -0.4912 0.7809 -0.3859
vn -0.0053 0.8603 -0.5097
vn 0.4400 0.4849 -0.7558
vn 0.4400 0.4849 -0.7558
vn 0.6704 0.7160 -0.1946
vn -0.4912 0.7809 -0.3859
vn 0.0020 0.9743 -0.2253
vn -0.4912 0.7809 -0.3859
vn 0.6704 0.7160 -0.1946
vn -0.6861 0.1780 -0.7054
vn -0.0002 0.0000 -1.0000
vn 0.0705 0.0372 -0.9968
vn 0.0705 0.0372 -0.9968
vn -0.0094 0.2292 -0.9733
vn -0.6861 0.1780 -0.7054
vn 0.0027 0.3379 -0.9412
vn -0.6861 0.1780 -0.7054
vn 0.0027 0.3379 -0.9412
vn -0.3585 0.9323 -0.0477
vn 0.0041 0.9193 -0.3936
vn 0.0041 0.9193 -0.3936
vn -0.0328 0.9892 -0.1428
vn -0.0328 0.9892 -0.1428
vn -0.3585 0.9323 -0.0477
vn 0.0274 0.9082 0.4175
vn -0.3585 0.9323 -0.0477
vn 0.0274 0.9082 0.4175
vn -0.0109 0.4537 0.8911
vn 0.1806 0.3324 0.9257
vn -0.0109 0.4537 0.8911
vn -0.5262 0.0963 0.8449
vn 0.0053 0.2582 0.9661
vn 0.1806 0.3324 0.9257
vn 0.1806 0.3324 0.9257
vn 0.0402 -0.1112 0.9930
vn -0.5262 0.0963 0.8449
vn 0.0000 -0.1442 0.9895
vn -0.5262 0.0963 0.8449
vn 0.0402 -0.1112 0.9930
vn 0.0402 -0.1112 0.9930
vn 0.0711 -0.4684 0.8806
vn -0.0020 -0.1762 0.9844
vn -0.5047 -0.5382 0.6750
vn 0.0019 -0.5581 0.8298
vn 0.0711 -0.4684 0.8806
vn 0.0711 -0.4684 0.8806
vn 0.0998 -0.7730 0.6265
vn -0.5047 -0.5382 0.6750
vn 0.0013 -0.7543 0.6566
vn -0.5047 -0.5382 0.6750
vn 0.0998 -0.7730 0.6265
vn -0.6459 -0.7035 0.2965
vn -0.0010 -0.8775 0.4797
vn 0.0998 -0.7730 0.6265
vn 0.0998 -0.7730 0.6265
vn 0.1115 -0.9588 0.2613
vn -0.6459 -0.7035 0.2965
vn -0.7359 -0.6732 0.0725
vn -0.6459 -0.7035 0.2965
vn 0.1115 -0.9588 0.2613
vn 0.1115 -0.9588 0.2613
vn 0.3711 -0.9249 -0.0824
vn -0.7359 -0.6732 0.0725
vn 0.0013 -0.9989 -0.0477
vn -0.7359 -0.6732 0.0725
vn 0.3711 -0.9249 -0.0824
vn -0.0007 -0.9719 -0.2355
vn -0.0007 -0.9719 -0.2355
vn 0.3711 -0.9249 -0.0824
vn 0.3711 -0.9249 -0.0824
vn 0.1331 -0.8711 -0.4726
vn -0.0021 -0.9637 -0.2669
vn 0.0013 -0.9094 -0.4159
vn 0.0013 -0.9094 -0.4159
vn 0.1331 -0.8711 -0.4726
vn -0.0009 -0.8007 -0.5991
vn -0.0009 -0.8007 -0.5991
vn 0.1331 -0.8711 -0.4726
vn 0.1331 -0.8711 -0.4726
vn 0.1619 -0.6571 -0.7362
vn -0.0014 -0.7953 -0.6062
vn 0.0007 -0.5686 -0.8226
vn 0.0007 -0.5686 -0.8226
vn 0.1619 -0.6571 -0.7362
vn 0.1619 -0.6571 -0.7362
vn 0.1608 -0.4070 -0.8991
vn 0.0000 -0.5543 -0.8323
vn 0.0000 -0.3714 -0.9285
vn 0.0000 -0.3714 -0.9285
vn 0.1608 -0.4070 -0.8991
vn 0.1608 -0.4070 -0.8991
vn 0.0705 0.0372 -0.9968
vn -0.0017 -0.3206 -0.9472
vn 0.0015 -0.1903 -0.9817
vn 0.0015 -0.1903 -0.9817
vn 0.0705 0.0372 -0.9968
vn 0.0041 -0.9921 -0.1257
vn 0.0041 -0.9921 -0.1257
vn 0.0041 -0.9921 -0.1257
vn -0.0357 -0.9108 -0.4113
vn -0.0357 -0.9108 -0.4113
vn -0.0357 -0.9108 -0.4113
vn 0.0539 -0.3957 -0.9168
vn 0.0539 -0.3957 -0.9168
vn 0.0539 -0.3957 -0.9168
vn -0.0886 0.6404 -0.7629
vn -0.0886 0.6404 -0.7629
vn -0.0886 0.6404 -0.7629
vn 0.0414 0.9466 -0.3198
vn 0.0414 0.9466 -0.3198
vn 0.0414 0.9466 -0.3198
vn -0.6612 0.4101 0.6282
vn -0.0182 0.6308 0.7757
vn -0.0182 0.6308 0.7757
vn 0.0043 0.7218 0.6921
vn 0.4745 0.4993 0.7249
vn -0.6612 0.4101 0.6282
vn 0.4745 0.4993 0.7249
vn -0.0032 0.2010 0.9796
vn -0.6612 0.4101 0.6282
vn -0.0018 0.1828 0.9832
vn -0.6612 0.4101 0.6282
vn -0.0018 0.1828 0.9832
vn -0.6532 -0.2534 0.7135
vn 0.0051 -0.0983 0.9951
vn 0.0051 -0.0983 0.9951
vn -0.0042 -0.3484 0.9373
vn 0.3606 -0.4290 0.8282
vn -0.6532 -0.2534 0.7135
vn -0.6443 -0.5133 0.5670
vn -0.6532 -0.2534 0.7135
vn 0.3606 -0.4290 0.8282
vn 0.3606 -0.4290 0.8282
vn 0.3372 -0.7336 0.5901
vn -0.6443 -0.5133 0.5670
vn 0.0000 -0.7958 0.6055
vn -0.6443 -0.5133 0.5670
vn 0.3372 -0.7336 0.5901
vn 0.3372 -0.7336 0.5901
vn -0.0032 -0.8163 0.5776
vn -0.0032 -0.8163 0.5776
vn 0.1268 0.3798 0.9163
vn -0.0002 0.0000 1.0000
vn -0.0002 0.0000 1.0000
vn 0.1268 0.3798 0.9163
vn 0.0000 0.0040 1.0000
vn 0.0000 0.0040 1.0000
vn -0.6859 -0.1825 0.7045
vn 0.0000 -0.1879 0.9822
vn 0.0000 -0.1879 0.9822
vn 0.0000 -0.1879 0.9822
vn 0.3175 -0.2968 0.9006
vn -0.6859 -0.1825 0.7045
vn -0.6580 -0.3246 0.6794
vn -0.6859 -0.1825 0.7045
vn 0.3175 -0.2968 0.9006
vn 0.3175 -0.2968 0.9006
vn 0.6103 -0.4889 0.6233
vn -0.6580 -0.3246 0.6794
vn 0.0000 -0.5408 0.8412
vn -0.6580 -0.3246 0.6794
vn 0.6103 -0.4889 0.6233
vn 0.6103 -0.4889 0.6233
vn -0.0062 -0.6932 0.7207
vn -0.0062 -0.6932 0.7207
vn 0.0163 -0.8551 0.5183
vn 0.0163 -0.8551 0.5183
vn 0.0163 -0.8551 0.5183
vn -0.0420 -0.9546 -0.2948
vn -0.0420 -0.9546 -0.2948
vn -0.0420 -0.9546 -0.2948
vn 0.0397 -0.7368 -0.6749
vn 0.0397 -0.7368 -0.6749
vn 0.0397 -0.7368 -0.6749
vn -0.0164 0.0429 -0.9989
vn 0.2433 0.1795 -0.9532
vn -0.0164 0.0429 -0.9989
vn -0.5947 0.3045 -0.7441
vn 0.0058 0.2882 -0.9576
vn 0.2433 0.1795 -0.9532
vn 0.2433 0.1795 -0.9532
vn 0.3244 0.5365 -0.7790
vn -0.5947 0.3045 -0.7441
vn -0.4752 0.5866 -0.6558
vn -0.5947 0.3045 -0.7441
vn 0.3244 0.5365 -0.7790
vn 0.3244 0.5365 -0.7790
vn 0.3239 0.6741 -0.6638
vn -0.4752 0.5866 -0.6558
vn -0.4483 0.7389 -0.5031
vn -0.4752 0.5866 -0.6558
vn 0.3239 0.6741 -0.6638
vn 0.3239 0.6741 -0.6638
vn 0.2870 0.9035 -0.3183
vn -0.4483 0.7389 -0.5031
vn -0.1825 0.9574 -0.2236
vn -0.4483 0.7389 -0.5031
vn 0.2870 0.9035 -0.3183
vn 0.2870 0.9035 -0.3183
vn 0.4458 0.8444 0.2971
vn -0.1825 0.9574 -0.2236
vn 0.0074 0.9996 -0.0278
vn -0.1825 0.9574 -0.2236
vn 0.4458 0.8444 0.2971
vn -0.4703 0.5497 0.6904
vn 0.0260 0.9237 0.3822
vn 0.4458 0.8444 0.2971
vn 0.4458 0.8444 0.2971
vn 0.1268 0.3798 0.9163
vn -0.4703 0.5497 0.6904
vn 0.0028 0.3529 0.9357
vn -0.4703 0.5497 0.6904
vn 0.1268 0.3798 0.9163
vn -0.9855 -0.1697 0.0079
vn -1.0000 0.0001 -0.0000
vn -0.9888 -0.1152 0.0953
vn -1.0000 0.0000 0.0000
vn -0.9140 -0.1802 -0.3635
vn -0.9888 -0.1152 0.0953
vn -0.6580 -0.3246 0.6794
vn -0.9888 -0.1152 0.0953
vn -0.9140 -0.1802 -0.3635
vn -1.0000 -0.0000 0.0000
vn -1.0000 -0.0000 0.0000
vn -1.0000 -0.0025 0.0051
vn -1.0000 -0.0025 0.0051
vn -1.0000 -0.0000 -0.0000
vn -1.0000 -0.0000 -0.0000
vn -0.8529 -0.1453 -0.5014
vn -1.0000 -0.0025 0.0051
vn -0.9984 0.0362 0.0440
vn -0.8529 -0.1453 -0.5014
vn -1.0000 0.0000 0.0000
vn -1.0000 -0.0025 0.0051
vn -1.0000 -0.0025 0.0051
vn -1.0000 0.0000 0.0000
vn -1.0000 0.0000 0.0000
vn -1.0000 0.0000 0.0000
vn -0.8612 0.1420 0.4880
vn -0.8350 0.0467 -0.5483
vn -0.8180 -0.1530 -0.5545
vn -0.8350 0.0467 -0.5483
vn -0.8612 0.1420 0.4880
vn -0.8612 0.1420 0.4880
vn -0.7947 -0.0341 0.6061
vn -0.8180 -0.1530 -0.5545
vn -0.7947 -0.0341 0.6061
vn -0.9140 -0.1802 -0.3635
vn -0.8180 -0.1530 -0.5545
vn -0.9140 -0.1802 -0.3635
vn -0.7947 -0.0341 0.6061
vn -0.6859 -0.1825 0.7045
vn -0.6859 -0.1825 0.7045
vn -0.6580 -0.3246 0.6794
vn -0.9140 -0.1802 -0.3635
vn -0.9888 -0.1152 0.0953
vn -0.9452 -0.3162 -0.0816
vn -0.9985 0.0539 -0.0018
vn -1.0000 -0.0025 0.0051
vn -1.0000 0.0000 0.0000
vn -0.9228 0.3748 0.0894
vn -0.9824 0.1864 0.0079
vn -0.6612 0.4101 0.6282
vn -0.9978 0.0406 -0.0530
vn -0.9996 -0.0028 -0.0292
vn -0.6532 -0.2534 0.7135
vn -0.6443 -0.5133 0.5670
vn -0.6443 -0.5133 0.5670
vn -0.9886 -0.1431 0.0459
vn -0.9996 -0.0028 -0.0292
vn -0.9946 0.0464 -0.0933
vn -1.0000 0.0000 0.0000
vn -0.9855 -0.1697 0.0079
vn -1.0000 -0.0000 0.0000
vn -1.0000 -0.0000 0.0000
vn -0.9946 0.0464 -0.0933
vn -0.9919 0.1111 -0.0608
vn -0.9946 0.0464 -0.0933
vn -0.9855 -0.1697 0.0079
vn -0.9985 0.0539 -0.0018
vn -0.9824 0.1189 -0.1441
vn -0.9855 -0.1697 0.0079
vn -0.9855 -0.1697 0.0079
vn -0.9990 0.0171 0.0407
vn -0.9919 0.1111 -0.0608
vn -0.9888 -0.1152 0.0953
vn -0.9985 0.0539 -0.0018
vn -0.9855 -0.1697 0.0079
vn -0.9999 0.0113 0.0095
vn -0.9985 0.0539 -0.0018
vn -0.9452 -0.3162 -0.0816
vn -0.9984 0.0362 0.0440
vn -0.9996 0.0290 0.0031
vn -0.8529 -0.1453 -0.5014
vn -0.9452 -0.3162 -0.0816
vn -0.8529 -0.1453 -0.5014
vn -0.9998 0.0145 0.0133
vn -0.9452 -0.3162 -0.0816
vn -0.9998 0.0104 0.0144
vn -0.9998 0.0104 0.0144
vn -0.9182 0.2236 -0.3271
vn -0.9996 -0.0079 0.0283
vn -0.9996 -0.0079 0.0283
vn -0.9978 0.0406 -0.0530
vn -0.9138 -0.3793 0.1450
vn -0.9824 0.1864 0.0079
vn -0.8812 0.0148 0.4726
vn -0.6532 -0.2534 0.7135
vn -0.9996 -0.0028 -0.0292
vn -0.9996 -0.0028 -0.0292
vn -0.6861 0.1780 -0.7054
vn -0.8812 0.0148 0.4726
vn -0.6612 0.4101 0.6282
vn -0.8812 0.0148 0.4726
vn -0.6861 0.1780 -0.7054
vn -0.6612 0.4101 0.6282
vn -0.6861 0.1780 -0.7054
vn -0.9978 0.0406 -0.0530
vn -0.8350 0.0467 -0.5483
vn -0.9228 0.3748 0.0894
vn -1.0000 -0.0000 -0.0000
vn -0.9228 0.3748 0.0894
vn -0.8350 0.0467 -0.5483
vn -0.9994 0.0140 -0.0307
vn -0.9228 0.3748 0.0894
vn -0.9994 0.0140 -0.0307
vn -1.0000 -0.0025 0.0051
vn -1.0000 -0.0025 0.0051
vn -0.8604 -0.3743 -0.3457
vn -0.8880 -0.2369 -0.3941
vn -1.0000 -0.0025 0.0051
vn -0.8880 -0.2369 -0.3941
vn -0.8401 -0.1628 -0.5175
vn -1.0000 -0.0025 0.0051
vn -0.8401 -0.1628 -0.5175
vn -0.9996 -0.0028 -0.0292
vn -0.9464 -0.1886 0.2621
vn -1.0000 -0.0025 0.0051
vn -0.9410 -0.2923 -0.1706
vn -0.9410 -0.2923 -0.1706
vn -0.9182 0.2236 -0.3271
vn -0.9997 0.0093 0.0217
vn -0.9997 0.0014 0.0225
vn -0.9997 0.0014 0.0225
vn -0.9410 -0.2923 -0.1706
vn -0.9182 0.2236 -0.3271
vn -0.9824 0.1864 0.0079
vn -0.9138 -0.3793 0.1450
vn -0.9138 -0.3793 0.1450
vn -0.9998 -0.0167 0.0141
vn -0.9182 0.2236 -0.3271
vn -0.5542 -0.8269 -0.0955
vn -0.9998 -0.0174 -0.0058
vn -0.9978 0.0406 -0.0530
vn -0.9998 -0.0174 -0.0058
vn -0.9138 -0.3793 0.1450
vn -0.9978 0.0406 -0.0530
vn -0.9997 -0.0225 -0.0127
vn -0.9997 -0.0225 -0.0127
vn -0.9978 0.0406 -0.0530
vn -0.9103 0.2500 0.3298
vn -0.9999 -0.0029 -0.0110
vn -0.9999 -0.0029 -0.0110
vn -0.9999 0.0016 -0.0107
vn -0.9537 -0.1101 0.2800
vn -0.9999 0.0016 -0.0107
vn -0.9946 0.0464 -0.0933
vn -1.0000 0.0000 0.0000
vn -1.0000 0.0000 0.0000
vn -0.9935 0.0877 0.0731
vn -1.0000 -0.0000 0.0000
vn -0.9946 0.0464 -0.0933
vn -0.9996 -0.0028 -0.0292
vn -0.9886 -0.1431 0.0459
vn -1.0000 -0.0025 0.0051
vn -1.0000 -0.0025 0.0051
vn -0.9886 -0.1431 0.0459
vn -0.9410 -0.2923 -0.1706
vn -0.9537 -0.1101 0.2800
vn -0.7436 -0.0565 -0.6663
vn -0.9999 0.0027 -0.0108
vn -0.2278 -0.8159 -0.5315
vn -0.2278 -0.8159 -0.5315
vn -0.2278 -0.8159 -0.5315
vn -0.9999 0.0001 -0.0109
vn -0.9537 -0.1101 0.2800
vn -1.0000 -0.0000 -0.0000
vn -1.0000 0.0000 0.0000
vn -0.9988 -0.0404 0.0270
vn -0.9999 0.0001 -0.0109
vn -0.9978 0.0406 -0.0530
vn -0.9994 -0.0317 0.0136
vn -0.9994 -0.0317 0.0136
vn -0.9995 -0.0268 -0.0155
vn -0.9995 -0.0268 -0.0155
vn -0.9103 0.2500 0.3298
vn -0.9996 -0.0268 -0.0123
vn -0.9103 0.2500 0.3298
vn -0.9996 -0.0268 -0.0123
vn -0.9946 0.0464 -0.0933
vn -0.9983 -0.0561 -0.0129
vn -0.9935 0.0877 0.0731
vn -0.9991 0.0215 -0.0357
vn -0.7436 -0.0565 -0.6663
vn -0.9935 0.0877 0.0731
vn -0.7436 -0.0565 -0.6663
vn -0.9999 0.0001 -0.0109
vn -0.9935 0.0877 0.0731
vn -0.9994 0.0140 -0.0307
vn -0.8188 0.4227 -0.3884
vn -0.9998 -0.0152 -0.0094
vn -0.8631 -0.4822 -0.1501
vn -0.9998 -0.0152 -0.0094
vn -0.8188 0.4227 -0.3884
vn -1.0000 -0.0025 0.0051
vn -0.9994 0.0140 -0.0307
vn -0.9998 -0.0152 -0.0094
vn -0.9998 -0.0152 -0.0094
vn -0.8604 -0.3743 -0.3457
vn -1.0000 -0.0025 0.0051
vn -0.8460 0.5309 0.0499
vn -0.9988 -0.0404 0.0270
vn -0.6459 -0.7035 0.2965
vn -0.9988 -0.0404 0.0270
vn -0.8460 0.5309 0.0499
vn -0.9892 0.1283 0.0707
vn -0.9999 0.0001 -0.0109
vn -0.9988 -0.0404 0.0270
vn -0.9892 0.1283 0.0707
vn -0.9892 0.1283 0.0707
vn -0.9935 0.0877 0.0731
vn -0.9999 0.0001 -0.0109
vn -0.8631 -0.4822 -0.1501
vn -0.8188 0.4227 -0.3884
vn -1.0000 -0.0000 0.0001
vn -0.8631 -0.4822 -0.1501
vn -1.0000 -0.0000 -0.0000
vn -0.9327 0.3573 -0.0492
vn -0.8460 0.5309 0.0499
vn -0.6459 -0.7035 0.2965
vn -0.7359 -0.6732 0.0725
vn -0.9327 0.3573 -0.0492
vn -0.8460 0.5309 0.0499
vn -0.7359 -0.6732 0.0725
vn -0.7359 -0.6732 0.0725
vn -0.8199 -0.5667 -0.0815
vn -0.9327 0.3573 -0.0492
vn -0.8199 -0.5667 -0.0815
vn -0.8631 -0.4822 -0.1501
vn -0.9327 0.3573 -0.0492
vn -0.9946 0.0464 -0.0933
vn -0.9919 0.1111 -0.0608
vn -0.1087 0.7145 -0.6912
vn -0.1087 0.7145 -0.6912
vn 0.6528 0.3665 -0.6629
vn 0.6528 0.3665 -0.6629
vn -0.9138 -0.3793 0.1450
vn -0.9998 -0.0174 -0.0058
vn -0.5542 -0.8269 -0.0955
vn -0.4236 0.2424 0.8728
vn -0.9984 0.0362 0.0440
vn -1.0000 -0.0025 0.0051
vn 0.3670 0.4493 0.8145
vn -0.4236 0.2424 0.8728
vn 0.3670 0.4493 0.8145
vn -0.9985 0.0539 -0.0018
vn -0.5960 0.6807 0.4259
vn -0.8632 0.4940 0.1043
vn -0.1260 0.9787 0.1622
vn -0.3608 0.9068 -0.2180
vn 0.1400 0.9895 0.0348
vn -0.1087 0.7145 -0.6912
vn -0.0370 0.8808 -0.4721
vn -0.3608 0.9068 -0.2180
vn -0.5214 -0.0023 -0.8533
vn -0.7436 -0.0565 -0.6663
vn -0.3496 0.3125 -0.8832
vn -0.4507 -0.3991 -0.7985
vn -0.7436 -0.0565 -0.6663
vn -0.5214 -0.0023 -0.8533
vn -0.5214 -0.0023 -0.8533
vn -0.4644 -0.5177 -0.7186
vn -0.4507 -0.3991 -0.7985
vn -0.4644 -0.5177 -0.7186
vn -0.5295 -0.7599 -0.3771
vn -0.4507 -0.3991 -0.7985
vn -0.4644 -0.5177 -0.7186
vn -0.6669 -0.6967 -0.2642
vn -0.5295 -0.7599 -0.3771
vn -0.6669 -0.6967 -0.2642
vn -0.4478 -0.8608 0.2420
vn -0.5295 -0.7599 -0.3771
vn -0.5542 -0.8269 -0.0955
vn -0.5295 -0.7599 -0.3771
vn -0.4478 -0.8608 0.2420
vn -0.0898 -0.9875 0.1297
vn -0.5542 -0.8269 -0.0955
vn -0.4478 -0.8608 0.2420
vn -0.3893 -0.7090 0.5880
vn -0.0644 -0.8807 0.4692
vn -0.4478 -0.8608 0.2420
vn -0.4478 -0.8608 0.2420
vn -0.2930 -0.5870 0.7547
vn -0.3893 -0.7090 0.5880
vn -0.6101 -0.2430 0.7542
vn -0.3893 -0.7090 0.5880
vn -0.2930 -0.5870 0.7547
vn -0.2930 -0.5870 0.7547
vn -0.5610 -0.0734 0.8246
vn -0.6101 -0.2430 0.7542
vn -0.4236 0.2424 0.8728
vn -0.6101 -0.2430 0.7542
vn -0.5610 -0.0734 0.8246
vn -0.5610 -0.0734 0.8246
vn -0.4759 0.3361 0.8128
vn -0.4236 0.2424 0.8728
vn -0.4236 0.2424 0.8728
vn -0.4759 0.3361 0.8128
vn -0.4389 0.6093 0.6603
vn -0.5526 0.5088 0.6601
vn -0.4236 0.2424 0.8728
vn -0.4389 0.6093 0.6603
vn -0.5960 0.6807 0.4259
vn -0.5526 0.5088 0.6601
vn -0.4389 0.6093 0.6603
vn -0.4389 0.6093 0.6603
vn -0.2697 0.9234 0.2732
vn -0.5960 0.6807 0.4259
vn -0.1260 0.9787 0.1622
vn -0.5960 0.6807 0.4259
vn -0.2697 0.9234 0.2732
vn -0.3608 0.9068 -0.2180
vn -0.1260 0.9787 0.1622
vn -0.2697 0.9234 0.2732
vn -0.2697 0.9234 0.2732
vn -0.7072 0.6938 -0.1362
vn -0.3608 0.9068 -0.2180
vn -0.3608 0.9068 -0.2180
vn -0.7072 0.6938 -0.1362
vn -0.4153 0.5578 -0.7186
vn -0.1087 0.7145 -0.6912
vn -0.3608 0.9068 -0.2180
vn -0.4153 0.5578 -0.7186
vn -0.3496 0.3125 -0.8832
vn -0.1087 0.7145 -0.6912
vn -0.4153 0.5578 -0.7186
vn -0.4153 0.5578 -0.7186
vn -0.5214 -0.0023 -0.8533
vn -0.3496 0.3125 -0.8832
vn -0.9432 -0.2478 0.2211
vn -0.9845 0.0272 -0.1733
vn -0.9845 0.0272 -0.1733
vn -0.8013 0.0770 -0.5933
vn -0.9748 -0.0765 -0.2093
vn -0.9988 0.0035 -0.0491
vn -0.9711 0.1157 -0.2088
vn -0.8013 0.0770 -0.5933
vn -0.9988 0.0036 -0.0490
vn -1.0000 0.0030 -0.0028
vn -1.0000 0.0030 -0.0028
vn -0.9711 0.1157 -0.2088
vn -0.8725 0.3644 -0.3253
vn -0.9711 0.1157 -0.2088
vn -1.0000 0.0035 -0.0029
vn -0.9965 0.0609 0.0570
vn -0.9965 0.0609 0.0570
vn -0.8920 0.1503 0.4263
vn -0.9970 0.0410 0.0655
vn -0.9970 0.0410 0.0655
vn -0.8920 0.1503 0.4263
vn -0.6669 -0.6967 -0.2642
vn -0.9959 -0.0447 -0.0792
vn -0.8721 -0.3611 -0.3304
vn -0.9999 -0.0041 -0.0116
vn -0.9999 -0.0041 -0.0116
vn -0.9748 -0.0765 -0.2093
vn -0.9952 0.0149 -0.0967
vn -0.7072 0.6938 -0.1362
vn -0.8725 0.3644 -0.3253
vn -1.0000 0.0055 0.0029
vn -1.0000 0.0055 0.0029
vn -0.9563 0.2381 0.1700
vn -0.8920 0.1503 0.4263
vn -0.9563 0.2381 0.1700
vn -0.9994 -0.0108 0.0339
vn -0.9748 -0.0765 -0.2093
vn -0.8721 -0.3611 -0.3304
vn -0.9981 -0.0505 -0.0342
vn -1.0000 -0.0014 0.0015
vn -1.0000 -0.0014 0.0015
vn -0.9432 -0.2478 0.2211
vn -0.8508 -0.5250 0.0233
vn -0.9432 -0.2478 0.2211
vn -0.9995 -0.0300 0.0033
vn -0.7986 -0.5990 -0.0583
vn -0.7986 -0.5990 -0.0583
vn -0.7986 -0.5990 -0.0583
vn -0.6669 -0.6967 -0.2642
vn -0.8508 -0.5250 0.0233
vn -0.9964 -0.0710 0.0472
vn -0.7072 0.6938 -0.1362
vn -0.0317 0.8868 -0.4611
vn -0.8725 0.3644 -0.3253
vn -0.9432 -0.2478 0.2211
vn -0.9518 -0.1278 0.2788
vn -0.9276 -0.0595 0.3688
vn -0.5610 -0.0734 0.8246
vn -0.9432 -0.2478 0.2211
vn -0.9276 -0.0595 0.3688
vn -0.8920 0.1503 0.4263
vn -0.5610 -0.0734 0.8246
vn -0.9276 -0.0595 0.3688
vn 0.4215 0.7513 0.5078
vn -0.7601 0.6439 0.0878
vn -0.1588 0.8883 0.4308
vn -0.7072 0.6938 -0.1362
vn -0.9563 0.2381 0.1700
vn -0.7601 0.6439 0.0878
vn -0.9748 -0.0765 -0.2093
vn -0.8013 0.0770 -0.5933
vn 0.1700 -0.2920 -0.9412
vn -0.8721 -0.3611 -0.3304
vn -0.3416 -0.5149 -0.7862
vn 0.1700 -0.2920 -0.9412
vn -0.6669 -0.6967 -0.2642
vn -0.8721 -0.3611 -0.3304
vn -0.7490 -0.6011 -0.2789
vn -0.8508 -0.5250 0.0233
vn -0.6669 -0.6967 -0.2642
vn -0.6685 -0.7166 -0.1987
vn 0.1609 -0.9338 -0.3194
vn 0.0327 -0.9788 0.2022
vn 0.3291 -0.9399 -0.0908
vn -0.9432 -0.2478 0.2211
vn -0.8508 -0.5250 0.0233
vn 0.0327 -0.9788 0.2022
vn 0.0327 -0.9788 0.2022
vn 0.3079 -0.7879 0.5333
vn 0.1789 -0.8842 0.4316
vn 0.3079 -0.7879 0.5333
vn 0.3455 -0.6685 0.6586
vn 0.3455 -0.6685 0.6586
vn -0.2611 -0.3556 0.8974
vn -0.1289 -0.6033 0.7870
vn -0.1289 -0.6033 0.7870
vn 0.6019 -0.1122 0.7907
vn 0.1687 0.0194 0.9855
vn 0.6019 -0.1122 0.7907
vn -0.8920 0.1503 0.4263
vn -0.3049 0.1440 0.9414
vn 0.1687 0.0194 0.9855
vn -0.0859 0.5411 0.8366
vn 0.2187 0.5908 0.7766
vn -0.0859 0.5411 0.8366
vn 0.2187 0.5908 0.7766
vn 0.4215 0.7513 0.5078
vn 0.5174 0.5943 0.6158
vn 0.4215 0.7513 0.5078
vn 0.3809 0.8384 0.3897
vn 0.3809 0.8384 0.3897
vn -0.7601 0.6439 0.0878
vn -0.5151 0.8490 -0.1173
vn -0.7072 0.6938 -0.1362
vn -0.4972 0.8308 -0.2500
vn -0.0317 0.8868 -0.4611
vn -0.7072 0.6938 -0.1362
vn -0.0317 0.8868 -0.4611
vn -0.1332 0.5429 -0.8292
vn 0.2395 0.7247 -0.6461
vn -0.3107 0.6231 -0.7178
vn -0.8725 0.3644 -0.3253
vn -0.1332 0.5429 -0.8292
vn -0.0461 0.3663 -0.9293
vn -0.0461 0.3663 -0.9293
vn -0.1332 0.5429 -0.8292
vn -0.1332 0.5429 -0.8292
vn 0.2758 0.3030 -0.9122
vn -0.8013 0.0770 -0.5933
vn 0.2758 0.3030 -0.9122
vn 0.2397 0.1481 -0.9595
vn 0.2397 0.1481 -0.9595
vn 0.1029 -0.0447 -0.9937
vn 0.1700 -0.2920 -0.9412
vn 0.1029 -0.0447 -0.9937
vn 0.9987 0.0500 0.0004
vn 0.6646 0.7403 0.1011
vn 0.9673 0.2389 0.0850
vn 0.9997 0.0118 0.0197
vn 0.9987 0.0500 0.0004
vn 0.9673 0.2389 0.0850
vn 0.3416 0.8536 0.3934
vn 0.3416 0.8536 0.3934
vn 0.4215 0.7513 0.5078
vn 0.9925 0.0525 0.1105
vn 0.9977 0.0607 0.0309
vn 0.4215 0.7513 0.5078
vn 0.9925 0.0525 0.1105
vn 0.4215 0.7513 0.5078
vn 0.2187 0.5908 0.7766
vn 0.0870 0.5025 0.8602
vn 0.2187 0.5908 0.7766
vn 0.0870 0.5025 0.8602
vn 0.9972 0.0012 0.0751
vn 0.9925 0.0525 0.1105
vn 0.5918 0.2084 0.7787
vn 0.9972 0.0012 0.0751
vn 0.9535 0.1173 -0.2775
vn 0.9535 0.1173 -0.2775
vn 0.1687 0.0194 0.9855
vn -0.2611 -0.3556 0.8974
vn -0.4804 -0.0612 0.8749
vn 0.9871 -0.0916 0.1313
vn 0.9972 0.0012 0.0751
vn 0.8500 -0.1728 0.4977
vn 0.9871 -0.0916 0.1313
vn 0.3079 -0.7879 0.5333
vn 0.9985 -0.0474 0.0286
vn 0.3079 -0.7879 0.5333
vn 0.0327 -0.9788 0.2022
vn -0.2071 -0.8795 0.4286
vn 0.9995 -0.0320 -0.0038
vn 0.9985 -0.0474 0.0286
vn 0.9520 -0.2927 0.0889
vn 0.0327 -0.9788 0.2022
vn 0.1609 -0.9338 -0.3194
vn -0.6223 -0.7795 -0.0718
vn 0.9944 -0.0720 -0.0769
vn 0.9995 -0.0320 -0.0038
vn 0.9820 -0.1772 -0.0648
vn 0.1609 -0.9338 -0.3194
vn -0.0882 -0.8348 -0.5434
vn -0.0882 -0.8348 -0.5434
vn -0.8721 -0.3611 -0.3304
vn 0.1700 -0.2920 -0.9412
vn -0.5536 -0.4341 -0.7107
vn 0.9945 -0.0003 -0.1050
vn 0.9944 -0.0720 -0.0769
vn 0.9678 -0.0593 -0.2445
vn 0.9985 0.0338 -0.0442
vn 0.9945 -0.0003 -0.1050
vn 0.2758 0.3030 -0.9122
vn -0.1785 0.4025 -0.8979
vn 0.2758 0.3030 -0.9122
vn -0.1332 0.5429 -0.8292
vn -0.1332 0.5429 -0.8292
vn -0.0317 0.8868 -0.4611
vn 0.0604 0.7370 -0.6732
vn 0.9977 0.0597 -0.0332
vn 0.9985 0.0338 -0.0442
vn -0.0317 0.8868 -0.4611
vn 0.7146 0.6849 -0.1427
vn 0.5464 0.7605 -0.3507
vn -0.0317 0.8868 -0.4611
vn 0.9987 0.0500 0.0004
vn 1.0000 0.0036 -0.0059
vn 0.7146 0.6849 -0.1427
vn -0.1531 0.9834 -0.0970
vn -0.7601 0.6439 0.0878
vn -0.1531 0.9834 -0.0970
f 78//1 79//2 80//3
f 80//4 79//5 152//6
f 152//7 146//8 80//9
f 146//10 144//11 80//12
f 144//13 147//14 80//15
f 78//16 80//17 147//18
f 79//19 78//20 147//21
f 147//22 152//23 79//24
f 184//25 183//26 153//27
f 152//28 182//29 184//30
f 153//31 152//32 184//33
f 167//34 165//35 151//36
f 151//37 165//38 162//39
f 173//40 174//41 182//42
f 182//43 174//44 175//45
f 152//46 166//47 169//48
f 169//49 182//50 152//51
f 169//52 171//53 182//54
f 182//55 171//56 173//57
f 181//58 182//59 175//60
f 162//61 156//62 151//63
f 176//64 179//65 181//66
f 175//67 176//68 181//69
f 152//70 155//71 166//72
f 176//73 167//74 179//75
f 151//76 179//77 167//78
f 154//79 179//80 151//81
f 148//82 115//83 145//84
f 149//85 143//86 148//87
f 151//88 149//89 154//90
f 149//91 145//92 154//93
f 148//94 145//95 149//96
f 143//97 115//98 148//99
f 115//100 143//101 140//102
f 140//103 117//104 115//105
f 117//106 118//107 115//108
f 116//109 118//110 119//111
f 119//112 122//113 120//114
f 133//115 132//116 144//117
f 119//118 144//119 126//120
f 126//121 122//122 119//123
f 144//124 132//125 126//126
f 142//127 129//128 121//129
f 116//130 119//131 120//132
f 144//133 138//134 133//135
f 129//136 116//137 120//138
f 120//139 121//140 129//141
f 178//142 142//143 150//144
f 183//145 177//146 172//147
f 183//148 172//149 170//150
f 183//151 170//152 168//153
f 168//154 153//155 183//156
f 168//157 164//158 153//159
f 164//160 160//161 153//162
f 158//163 159//164 150//165
f 150//166 159//167 161//168
f 161//169 163//170 150//171
f 178//172 150//173 163//174
f 160//175 157//176 150//177
f 150//178 157//179 158//180
f 180//181 178//182 163//183
f 163//184 177//185 180//186
f 183//187 114//188 177//189
f 114//190 180//191 177//192
f 141//193 143//194 147//195
f 141//196 147//197 144//198
f 153//199 150//200 152//201
f 150//202 144//203 146//204
f 146//205 152//206 150//207
f 150//208 153//209 160//210
f 150//211 142//212 144//213
f 144//214 142//215 138//216
f 142//217 121//218 138//219
f 137//220 135//221 140//222
f 135//223 131//224 140//225
f 128//226 130//227 141//228
f 130//229 134//230 141//231
f 131//232 127//233 140//234
f 117//235 140//236 127//237
f 127//238 125//239 117//240
f 125//241 123//242 117//243
f 134//244 136//245 141//246
f 139//247 137//248 140//249
f 118//250 117//251 123//252
f 123//253 124//254 118//255
f 141//256 118//257 124//258
f 124//259 128//260 141//261
f 141//262 136//263 139//264
f 140//265 141//266 139//267
f 143//268 141//269 140//270
f 143//271 149//272 147//273
f 152//274 147//275 149//276
f 149//277 151//278 152//279
f 152//280 151//281 155//282
f 151//283 156//284 155//285
f 118//286 141//287 144//288
f 144//289 119//290 118//291
f 76//292 77//293 143//294
f 148//295 143//296 77//297
f 77//298 75//299 148//300
f 143//301 148//302 75//303
f 75//304 76//305 143//306
f 76//307 75//308 77//309
f 36//310 37//311 155//312
f 155//313 156//314 36//315
f 41//316 36//317 156//318
f 156//319 162//320 41//321
f 46//322 41//323 162//324
f 49//325 46//326 162//327
f 162//328 165//329 49//330
f 51//331 49//332 165//333
f 165//334 167//335 51//336
f 55//337 51//338 167//339
f 167//340 176//341 55//342
f 58//343 55//344 176//345
f 176//346 175//347 58//348
f 175//349 174//350 58//351
f 61//352 58//353 174//354
f 174//355 173//356 61//357
f 59//358 61//359 173//360
f 173//361 171//362 59//363
f 56//364 59//365 171//366
f 171//367 169//368 56//369
f 52//370 56//371 169//372
f 169//373 166//374 52//375
f 48//376 52//377 166//378
f 44//379 48//380 166//381
f 39//382 44//383 166//384
f 166//385 155//386 39//387
f 37//388 39//389 155//390
f 9//391 12//392 128//393
f 128//394 124//395 9//396
f 7//397 9//398 124//399
f 5//400 7//401 124//402
f 124//403 123//404 5//405
f 6//406 5//407 123//408
f 123//409 125//410 6//411
f 11//412 6//413 125//414
f 125//415 127//416 11//417
f 13//418 11//419 127//420
f 127//421 131//422 13//423
f 20//424 13//425 131//426
f 131//427 135//428 20//429
f 22//430 20//431 135//432
f 26//433 22//434 135//435
f 135//436 137//437 26//438
f 28//439 26//440 137//441
f 137//442 139//443 28//444
f 27//445 28//446 139//447
f 24//448 27//449 139//450
f 139//451 136//452 24//453
f 23//454 24//455 136//456
f 18//457 23//458 136//459
f 136//460 134//461 18//462
f 16//463 18//464 134//465
f 134//466 130//467 16//468
f 14//469 16//470 130//471
f 130//472 128//473 14//474
f 12//475 14//476 128//477
f 25//478 21//479 138//480
f 138//481 121//482 25//483
f 17//484 25//485 121//486
f 121//487 120//488 17//489
f 4//490 17//491 120//492
f 8//493 4//494 120//495
f 120//496 122//497 8//498
f 122//499 126//500 8//501
f 10//502 8//503 126//504
f 15//505 10//506 126//507
f 126//508 132//509 15//510
f 19//511 15//512 132//513
f 132//514 133//515 19//516
f 21//517 19//518 133//519
f 133//520 138//521 21//522
f 164//523 54//524 50//525
f 164//526 168//527 54//528
f 57//529 54//530 168//531
f 168//532 170//533 57//534
f 60//535 57//536 170//537
f 170//538 172//539 60//540
f 62//541 60//542 172//543
f 172//544 177//545 62//546
f 63//547 62//548 177//549
f 177//550 163//551 63//552
f 53//553 63//554 163//555
f 163//556 161//557 53//558
f 47//559 53//560 161//561
f 161//562 159//563 47//564
f 45//565 47//566 159//567
f 159//568 158//569 45//570
f 43//571 45//572 158//573
f 158//574 157//575 43//576
f 40//577 43//578 157//579
f 157//580 160//581 40//582
f 38//583 40//584 160//585
f 42//586 38//587 160//588
f 160//589 164//590 42//591
f 50//592 42//593 164//594
f 58//595 61//596 62//597
f 61//598 59//599 62//600
f 60//601 62//602 59//603
f 45//604 43//605 34//606
f 34//607 43//608 40//609
f 53//610 34//611 35//612
f 53//613 47//614 34//615
f 34//616 47//617 45//618
f 42//619 50//620 52//621
f 56//622 52//623 50//624
f 50//625 54//626 56//627
f 54//628 59//629 56//630
f 59//631 54//632 57//633
f 57//634 60//635 59//636
f 62//637 63//638 67//639
f 34//640 40//641 38//642
f 4//643 8//644 7//645
f 12//646 15//647 19//648
f 19//649 21//650 12//651
f 65//652 55//653 58//654
f 51//655 55//656 65//657
f 66//658 65//659 58//660
f 67//661 74//662 58//663
f 58//664 74//665 66//666
f 62//667 67//668 58//669
f 72//670 67//671 63//672
f 35//673 64//674 53//675
f 63//676 53//677 64//678
f 63//679 64//680 72//681
f 17//682 73//683 29//684
f 7//685 2//686 4//687
f 10//688 15//689 12//690
f 12//691 9//692 10//693
f 8//694 10//695 9//696
f 8//697 9//698 7//699
f 52//700 38//701 42//702
f 38//703 52//704 48//705
f 38//706 48//707 34//708
f 34//709 18//710 16//711
f 34//712 16//713 14//714
f 34//715 14//716 12//717
f 32//718 34//719 25//720
f 25//721 17//722 29//723
f 29//724 32//725 25//726
f 17//727 4//728 2//729
f 2//730 73//731 17//732
f 70//733 1//734 7//735
f 1//736 2//737 7//738
f 3//739 70//740 7//741
f 6//742 11//743 71//744
f 11//745 13//746 71//747
f 65//748 49//749 51//750
f 46//751 49//752 65//753
f 12//754 21//755 34//756
f 34//757 21//758 25//759
f 13//760 31//761 71//762
f 13//763 30//764 31//765
f 30//766 13//767 20//768
f 20//769 22//770 30//771
f 7//772 5//773 3//774
f 71//775 3//776 6//777
f 5//778 6//779 3//780
f 65//781 33//782 46//783
f 33//784 31//785 46//786
f 31//787 30//788 46//789
f 48//790 44//791 23//792
f 24//793 23//794 44//795
f 34//796 48//797 23//798
f 23//799 18//800 34//801
f 36//802 22//803 26//804
f 22//805 36//806 41//807
f 30//808 22//809 41//810
f 41//811 46//812 30//813
f 24//814 44//815 39//816
f 24//817 39//818 37//819
f 36//820 26//821 28//822
f 37//823 36//824 28//825
f 28//826 27//827 37//828
f 27//829 24//830 37//831
f 65//832 66//833 69//834
f 69//835 33//836 65//837
f 2//838 1//839 70//840
f 32//841 35//842 34//843
f 35//844 32//845 64//846
f 67//847 72//848 68//849
f 68//850 74//851 67//852
f 69//853 66//854 74//855
f 85//856 31//857 33//858
f 71//859 31//860 85//861
f 85//862 84//863 71//864
f 84//865 3//866 71//867
f 84//868 92//869 3//870
f 92//871 83//872 3//873
f 70//874 3//875 83//876
f 2//877 70//878 83//879
f 73//880 2//881 83//882
f 83//883 81//884 73//885
f 29//886 73//887 81//888
f 81//889 86//890 29//891
f 32//892 29//893 86//894
f 86//895 87//896 32//897
f 32//898 87//899 82//900
f 64//901 32//902 82//903
f 72//904 64//905 82//906
f 82//907 88//908 72//909
f 68//910 72//911 88//912
f 74//913 68//914 88//915
f 88//916 90//917 74//918
f 74//919 90//920 89//921
f 69//922 74//923 89//924
f 33//925 69//926 89//927
f 89//928 85//929 33//930
f 93//931 86//932 81//933
f 95//934 94//935 85//936
f 96//937 95//938 85//939
f 85//940 89//941 96//942
f 101//943 96//944 89//945
f 87//946 86//947 103//948
f 82//949 87//950 103//951
f 92//952 84//953 108//954
f 84//955 85//956 94//957
f 89//958 90//959 101//960
f 88//961 82//962 97//963
f 103//964 97//965 82//966
f 94//967 108//968 84//969
f 81//970 83//971 93//972
f 91//973 93//974 83//975
f 97//976 90//977 88//978
f 92//979 91//980 83//981
f 90//982 99//983 101//984
f 93//985 110//986 98//987
f 86//988 93//989 98//990
f 103//991 86//992 98//993
f 107//994 100//995 97//996
f 90//997 97//998 100//999
f 94//1000 95//1001 106//1002
f 108//1003 94//1004 106//1005
f 92//1006 108//1007 102//1008
f 91//1009 92//1010 102//1011
f 102//1012 105//1013 91//1014
f 93//1015 91//1016 105//1017
f 105//1018 111//1019 93//1020
f 111//1021 129//1022 93//1023
f 110//1024 93//1025 129//1026
f 110//1027 112//1028 98//1029
f 103//1030 98//1031 112//1032
f 103//1033 104//1034 97//1035
f 104//1036 107//1037 97//1038
f 107//1039 114//1040 100//1041
f 100//1042 181//1043 90//1044
f 181//1045 99//1046 90//1047
f 99//1048 113//1049 101//1050
f 96//1051 101//1052 113//1053
f 95//1054 96//1055 113//1056
f 113//1057 109//1058 95//1059
f 109//1060 145//1061 95//1062
f 145//1063 106//1064 95//1065
f 184//1066 100//1067 114//1068
f 183//1069 184//1070 114//1071
f 180//1072 114//1073 107//1074
f 178//1075 180//1076 107//1077
f 178//1078 107//1079 104//1080
f 178//1081 104//1082 103//1083
f 142//1084 178//1085 103//1086
f 142//1087 103//1088 112//1089
f 112//1090 110//1091 142//1092
f 129//1093 142//1094 110//1095
f 129//1096 111//1097 116//1098
f 111//1099 105//1100 116//1101
f 118//1102 116//1103 105//1104
f 105//1105 102//1106 118//1107
f 115//1108 118//1109 102//1110
f 102//1111 108//1112 115//1113
f 108//1114 106//1115 115//1116
f 145//1117 115//1118 106//1119
f 154//1120 145//1121 109//1122
f 154//1123 109//1124 113//1125
f 113//1126 99//1127 154//1128
f 179//1129 154//1130 99//1131
f 181//1132 179//1133 99//1134
f 184//1135 182//1136 181//1137
f 181//1138 100//1139 184//1140
